<svg version="1.1" viewBox="0 0 717 131" xmlns="http://www.w3.org/2000/svg">
 <g transform="translate(-13.3,-77.7)" aria-label="PERPLEX">
  <path d="m13.3 208v-130h53.9q17.2 0 25.9 10.6 8.96 10.6 8.96 29.3t-8.96 29.3q-8.77 10.6-25.9 10.6h-30.6v50.4zm23.3-70.7h28.2q5.97 0 9.33-3.17 3.55-3.36 3.55-10.6v-11.6q0-7.28-3.55-10.5-3.36-3.36-9.33-3.36h-28.2z" fill="#c9177e"/>
  <path d="m123 208v-130h78.2v20.3h-54.9v34h48v19.8h-48v35.8h54.9v20.3z" fill="#8b8b8b"/>
  <path d="m247 208h-23.3v-130h53.9q17.2 0 25.9 10.5 8.96 10.5 8.96 29.1 0 14.7-5.6 24.5-5.6 9.52-16.4 13.1l23.7 53.2h-25.2l-21.5-51.3h-20.5zm28.2-70.7q5.97 0 9.33-3.17 3.55-3.17 3.55-10.6v-11.6q0-7.47-3.55-10.6-3.36-3.17-9.33-3.17h-28.2v39.2z" fill="#0083c0"/>
  <path d="m333 208v-130h53.9q17.2 0 25.9 10.6 8.96 10.6 8.96 29.3t-8.96 29.3q-8.77 10.6-25.9 10.6h-30.6v50.4zm23.3-70.7h28.2q5.97 0 9.33-3.17 3.55-3.36 3.55-10.6v-11.6q0-7.28-3.55-10.5-3.36-3.36-9.33-3.36h-28.2z" fill="#8d8d8d"/>
  <path d="m443 208v-130h23.3v110h45.7v20.3z" fill="#00a88a"/>
  <path d="m533 208v-130h78.2v20.3h-54.9v34h48v19.8h-48v35.8h54.9v20.3z" fill="#8b8b8b"/>
  <path d="m730 208h-26.9l-25.4-48.7h-2.43l-25 48.7h-25l37.1-66.6-35.3-63.7h26.7l23.1 45.2h2.61l23.5-45.2h25l-35.8 63.5z" fill="#ebb923"/>
 </g>
</svg>
