<svg version="1.1" viewBox="0 0 79.375 52.917" xmlns="http://www.w3.org/2000/svg">
  <rect x="-1.3767e-14" y="-8.3785e-15" width="79.375" height="52.917" fill="#b3b3b3" stroke="#efd16d" stroke-dasharray="0.0457185, 0.137156" stroke-linecap="square" stroke-linejoin="round" stroke-width=".045718" style="paint-order:markers fill stroke"/>
  <path d="m44.483 23.693-1.0186-1.0319q-0.0265 0.0132-0.0463 0.0132h-7.2827q-0.3175 0-0.54239-0.22489-0.2249-0.2249-0.2249-0.5424v-7.2827q0-0.0198 0.0132-0.0331l-0.92604-0.93927 0.42333-0.42333 10.041 10.028zm-8.3476-1.614h6.7336l-1.5743-1.5875h-4.3392l1.4552-1.733 1.0319 1.3229 0.635-0.80698-4.1143-4.1143v6.7469q0 0.0794 0.0463 0.12568 0.0463 0.0463 0.12567 0.0463zm8.2285-0.59531-0.59531-0.60854v-6.4294q0-0.0794-0.0463-0.12568-0.0463-0.0463-0.12568-0.0463h-6.4294l-0.60854-0.59531h7.0379q0.3175 0 0.5424 0.2249 0.22489 0.22489 0.22489 0.54239z" stroke-width=".26458"/>
  <text x="39.59119" y="38.357533" font-family="'IBM Plex Mono'" font-size="7.0556px" font-weight="500" letter-spacing="0px" stroke-width=".26458" text-align="center" text-anchor="middle" word-spacing="0px" style="font-variant-caps:normal;font-variant-east-asian:normal;font-variant-ligatures:normal;font-variant-numeric:normal;line-height:1.25" xml:space="preserve"><tspan x="39.59119" y="38.357533" font-family="'IBM Plex Mono'" font-size="7.0556px" font-weight="500" stroke-width=".26458" style="font-variant-caps:normal;font-variant-east-asian:normal;font-variant-ligatures:normal;font-variant-numeric:normal">Missing image</tspan></text>
</svg>
