<svg version="1.0" viewBox="0 0 120 42" xmlns="http://www.w3.org/2000/svg">
  <g transform="matrix(.994 0 0 .994 -178 -74.4)">
    <path id="a" d="m182 75.4 114 0.203c1.59 0 3.02-0.237 3.02 3.18l-0.14 37.6h-120v-37.7c0-1.68 0.163-3.24 2.88-3.24z" fill="#aab2ab" nodetypes="ccccccc"/>
    <g id="b" transform="matrix(.873 0 0 .873 50.1 143)">
      <path id="c" cx="296.35416" cy="264.3577" rx="22.939548" ry="22.939548" d="m187-55.7c0.00558 8.68-7.03 15.7-15.7 15.7-8.68 0.00504-15.7-7.03-15.7-15.7v-0.019c-0.00504-8.68 7.03-15.7 15.7-15.7 8.68-0.00562 15.7 7.03 15.7 15.7v0.019z" fill="#fff" type="arc"/>
      <g id="d" transform="translate(-290 99.1)">
        <path id="e" d="m474-168c3.49 3.49 5.23 7.75 5.23 12.8s-1.71 9.27-5.14 12.7c-3.64 3.58-7.93 5.36-12.9 5.36-4.9 0-9.12-1.77-12.7-5.32-3.55-3.55-5.32-7.78-5.32-12.7 0-4.93 1.77-9.2 5.32-12.8 3.46-3.49 7.68-5.23 12.7-5.23 5.05 0 9.31 1.74 12.8 5.23zm-23.1 2.34c-2.95 2.98-4.42 6.46-4.42 10.5 0 4 1.46 7.46 4.37 10.4 2.92 2.92 6.39 4.37 10.4 4.37 4.03 0 7.53-1.47 10.5-4.42 2.83-2.74 4.24-6.18 4.24-10.3s-1.44-7.61-4.31-10.5c-2.87-2.87-6.35-4.31-10.4-4.31-4.09 0-7.55 1.44-10.4 4.33zm7.75 8.7c-0.45-0.982-1.12-1.47-2.02-1.47-1.59 0-2.38 1.07-2.38 3.21s0.794 3.21 2.38 3.21c1.05 0 1.8-0.521 2.25-1.57l2.2 1.17c-1.05 1.87-2.63 2.8-4.73 2.8-1.62 0-2.92-0.497-3.89-1.49-0.976-0.993-1.46-2.36-1.46-4.11 0-1.72 0.502-3.08 1.51-4.09 1.01-1.01 2.26-1.51 3.76-1.51 2.22 0 3.81 0.875 4.77 2.62l-2.38 1.22zm10.4 0c-0.451-0.982-1.11-1.47-1.98-1.47-1.62 0-2.43 1.07-2.43 3.21s0.811 3.21 2.43 3.21c1.05 0 1.79-0.521 2.21-1.57l2.25 1.17c-1.05 1.87-2.62 2.8-4.72 2.8-1.62 0-2.91-0.497-3.89-1.49-0.972-0.993-1.46-2.36-1.46-4.11 0-1.72 0.494-3.08 1.48-4.09 0.988-1.01 2.25-1.51 3.77-1.51 2.22 0 3.8 0.875 4.76 2.62l-2.43 1.22z"/>
      </g>
    </g>
    <path d="m297 74.9h-116c-1.25 0-2.26 1.01-2.26 2.26v39.5c0 0.282 0.229 0.511 0.51 0.511h120c0.282 0 0.511-0.229 0.511-0.511v-39.5c0-1.25-1.01-2.26-2.26-2.26zm-116 1.02h116c0.684 0 1.24 0.556 1.24 1.24v27.4h-83.1c-3.04 5.51-8.91 9.24-15.6 9.24-6.74 0-12.6-3.73-15.6-9.24h-4.35v-27.4c-2e-5 -0.684 0.557-1.24 1.24-1.24z"/>
    <g enable-background="new    " fill="#fff">
      <path d="m266 113c0.0801 0.156 0.188 0.282 0.321 0.378 0.134 0.0962 0.29 0.168 0.47 0.214 0.181 0.0469 0.367 0.0703 0.56 0.0703 0.13 0 0.27-0.0107 0.419-0.0327 0.148-0.0215 0.288-0.064 0.419-0.126 0.13-0.062 0.239-0.148 0.325-0.257 0.0879-0.109 0.131-0.247 0.131-0.416 0-0.18-0.0576-0.326-0.173-0.438-0.114-0.112-0.266-0.205-0.452-0.28-0.186-0.0742-0.397-0.14-0.633-0.196-0.236-0.0562-0.476-0.118-0.718-0.187-0.249-0.062-0.491-0.138-0.728-0.229-0.235-0.0898-0.447-0.207-0.634-0.35s-0.337-0.322-0.452-0.537c-0.114-0.215-0.172-0.475-0.172-0.779 0-0.343 0.0732-0.64 0.219-0.892 0.146-0.252 0.338-0.462 0.574-0.63 0.235-0.168 0.503-0.292 0.802-0.374 0.298-0.0806 0.597-0.121 0.895-0.121 0.349 0 0.683 0.0391 1 0.117 0.319 0.0776 0.604 0.204 0.853 0.378s0.446 0.397 0.593 0.668c0.146 0.271 0.219 0.6 0.219 0.985h-1.42c-0.0127-0.199-0.0547-0.364-0.125-0.495-0.0713-0.131-0.166-0.233-0.283-0.309-0.118-0.0742-0.253-0.127-0.404-0.158-0.152-0.0312-0.317-0.0469-0.497-0.0469-0.117 0-0.235 0.0127-0.353 0.0371-0.118 0.0254-0.225 0.0688-0.32 0.131-0.0967 0.0625-0.176 0.14-0.237 0.233-0.0615 0.0938-0.0928 0.212-0.0928 0.355 0 0.131 0.0244 0.237 0.0742 0.317 0.0498 0.081 0.148 0.156 0.294 0.224s0.348 0.137 0.605 0.206 0.595 0.156 1.01 0.261c0.124 0.0249 0.296 0.0703 0.517 0.136s0.439 0.169 0.657 0.312c0.218 0.144 0.405 0.335 0.564 0.574 0.158 0.24 0.237 0.546 0.237 0.92 0 0.305-0.0596 0.588-0.178 0.85-0.118 0.262-0.294 0.487-0.527 0.677s-0.522 0.338-0.867 0.444c-0.346 0.106-0.746 0.159-1.2 0.159-0.367 0-0.724-0.0454-1.07-0.136-0.345-0.0903-0.65-0.232-0.915-0.426-0.264-0.193-0.474-0.44-0.63-0.739-0.155-0.299-0.229-0.654-0.224-1.06h1.42c-3e-5 0.224 0.04 0.414 0.121 0.569z"/>
      <path d="m274 108 2.49 6.66h-1.52l-0.504-1.48h-2.49l-0.522 1.48h-1.47l2.52-6.66h1.5zm0.084 4.09-0.84-2.44h-0.0186l-0.869 2.44h1.73z"/>
      <path d="m239 108c0.317 0 0.607 0.0283 0.869 0.084 0.262 0.0562 0.486 0.148 0.674 0.275 0.187 0.127 0.332 0.297 0.435 0.508s0.154 0.473 0.154 0.784c0 0.336-0.0762 0.615-0.229 0.839-0.152 0.224-0.379 0.407-0.678 0.55 0.412 0.118 0.72 0.325 0.923 0.621s0.305 0.652 0.305 1.07c0 0.336-0.0654 0.627-0.196 0.873-0.131 0.246-0.308 0.446-0.528 0.602-0.222 0.156-0.475 0.271-0.758 0.345-0.284 0.0752-0.575 0.112-0.875 0.112h-3.24v-6.66h3.14v1e-5zm-0.188 2.7c0.262 0 0.477-0.062 0.646-0.186 0.168-0.125 0.252-0.326 0.252-0.605 0-0.155-0.0283-0.283-0.084-0.382-0.0566-0.0996-0.131-0.177-0.225-0.233-0.0938-0.0557-0.201-0.0947-0.322-0.116-0.122-0.022-0.248-0.0327-0.379-0.0327h-1.37v1.55h1.49zm0.0859 2.83c0.144 0 0.28-0.0137 0.411-0.042 0.131-0.0278 0.247-0.0747 0.347-0.14 0.0996-0.0654 0.179-0.154 0.238-0.266s0.0889-0.255 0.0889-0.429c0-0.342-0.0967-0.586-0.29-0.732s-0.449-0.219-0.767-0.219h-1.6v1.83h1.57z"/>
      <path d="m242 108h1.64l1.56 2.63 1.55-2.63h1.63l-2.47 4.11v2.56h-1.47v-2.59l-2.45-4.07z"/>
    </g>
    <g id="f" transform="matrix(.625 0 0 .625 391 177)">
      <path id="g" cx="475.97119" cy="252.08646" rx="29.209877" ry="29.209877" d="m-175-139c0.00626 9.41-7.62 17-17 17.1-9.41 0.00708-17-7.62-17.1-17v-0.025c-0.00626-9.41 7.62-17 17-17.1 9.41-0.00702 17 7.62 17.1 17v0.025z" fill="#fff" type="arc"/>
      <g id="h" transform="translate(-24 -89.7)">
        <path id="i" d="m-168-68.1c-5.17 0-9.55 1.8-13.1 5.41-3.68 3.73-5.51 8.15-5.51 13.3s1.84 9.49 5.51 13.2c3.68 3.67 8.05 5.51 13.1 5.51 5.14 0 9.6-1.85 13.4-5.55 3.55-3.52 5.33-7.89 5.33-13.1 0-5.23-1.81-9.65-5.42-13.3-3.61-3.61-8.04-5.41-13.3-5.41zm0.0469 3.36c4.24 0 7.84 1.49 10.8 4.48 2.99 2.96 4.48 6.57 4.48 10.8 0 4.29-1.46 7.86-4.39 10.7-3.08 3.05-6.71 4.57-10.9 4.57-4.18 0-7.77-1.51-10.8-4.53-3.02-3.02-4.53-6.6-4.53-10.7 0-4.14 1.53-7.75 4.58-10.8 2.93-2.99 6.51-4.48 10.7-4.48z"/>
        <path id="j" d="m-176-52c0.744-4.7 4.05-7.21 8.2-7.21 5.96 0 9.59 4.33 9.59 10.1 0 5.63-3.86 10-9.69 10-4 0-7.59-2.46-8.24-7.3h4.7c0.141 2.51 1.77 3.39 4.1 3.39 2.65 0 4.38-2.46 4.38-6.23 0-3.95-1.49-6.05-4.29-6.05-2.05 0-3.82 0.745-4.19 3.3l1.37-0.00702-3.7 3.7-3.7-3.7 1.47 0.00702z"/>
      </g>
    </g>
    <circle cx="243" cy="90.2" r="10.8" fill="#fff"/>
    <path d="m246 87.1c0-0.416-0.338-0.753-0.754-0.753h-4.77c-0.416 0-0.754 0.337-0.754 0.753v4.77h1.33v5.65h3.62v-5.65h1.33v-4.77h1e-5z"/>
    <circle cx="243" cy="84.1" r="1.63"/>
    <path d="m243 78.3c-3.23 0-5.97 1.13-8.21 3.38-2.3 2.33-3.45 5.1-3.45 8.28s1.15 5.93 3.45 8.23c2.3 2.29 5.03 3.44 8.21 3.44 3.21 0 6-1.16 8.35-3.47 2.22-2.2 3.33-4.93 3.33-8.2s-1.13-6.03-3.39-8.28c-2.26-2.26-5.02-3.38-8.3-3.38zm0.0293 2.1c2.65 0 4.9 0.934 6.75 2.8 1.87 1.85 2.8 4.1 2.8 6.77 0 2.68-0.915 4.91-2.75 6.68-1.93 1.91-4.2 2.86-6.81 2.86s-4.86-0.943-6.75-2.83c-1.89-1.89-2.83-4.12-2.83-6.71s0.954-4.84 2.86-6.77c1.83-1.87 4.07-2.8 6.72-2.8z" clip-rule="evenodd" fill-rule="evenodd"/>
  </g>
</svg>
