<svg version="1.1" viewBox="0 0 103.93 33.276" xmlns="http://www.w3.org/2000/svg">
  <title>Netlify</title>
  <desc>Created with Sketch.</desc>
  <defs>
    <radialGradient id="a" cx="52.528" cy="-49.92" r="104.62" gradientTransform="matrix(.32799 0 0 .32882 6.7094 12.102)" gradientUnits="userSpaceOnUse">
      <stop stop-color="#20C6B7" offset="0"/>
      <stop stop-color="#4D9ABF" offset="1"/>
    </radialGradient>
  </defs>
  <g transform="matrix(.96976 0 0 .96976 -6.6183 -12.455)">
    <path id="b" d="m50.319 25.029 0.0839 1.5015c0.95707-1.1613 2.2136-1.742 3.7689-1.742 2.6952 0 4.067 1.5494 4.1148 4.6481v8.5857h-2.906v-8.4177c0-0.82455-0.17736-1.4346-0.53209-1.8315-0.35472-0.39622-0.93524-0.59433-1.7409-0.59433-1.1726 0-2.0465 0.53285-2.6195 1.5972v9.2463h-2.9074v-12.993h2.7396zm16.63 13.234c-1.8418 0-3.3358-0.58204-4.4797-1.7468-1.1447-1.1648-1.717-2.7162-1.717-4.6536v-0.36002c0-1.2966 0.24899-2.4559 0.74765-3.4765 0.49798-1.0206 1.1986-1.8151 2.0997-2.3842 0.90114-0.56769 1.906-0.85188 3.0152-0.85188 1.762 0 3.1243 0.56428 4.0848 1.6928 0.96184 1.1292 1.4421 2.7257 1.4421 4.7916v1.1771h-8.4588c0.08868 1.0725 0.44477 1.921 1.071 2.5454 0.62622 0.62439 1.4141 0.93659 2.363 0.93659 1.3316 0 2.4162-0.53968 3.2539-1.6211l1.5669 1.5015c-0.51844 0.77605-1.2102 1.3786-2.0751 1.8069-0.86566 0.42833-1.8364 0.64215-2.9128 0.64215zm-0.34654-11.131c-0.79813 0-1.4414 0.28009-1.9319 0.84026-0.49116 0.56018-0.80358 1.341-0.93934 2.3418h5.5391v-0.21656c-0.06412-0.97689-0.32334-1.7147-0.77766-2.2154-0.455-0.50006-1.0846-0.75009-1.8903-0.75009zm11.436-5.2602v3.1582h2.2852v2.1615h-2.2852v7.2529c0 0.49596 0.09823 0.85393 0.29333 1.0746 0.1951 0.21997 0.54436 0.32996 1.0471 0.32996 0.34228-9.52e-4 0.68333-0.0413 1.0164-0.12023v2.2578c-0.6617 0.18445-1.2995 0.27599-1.9141 0.27599-2.2327 0-3.3494-1.2365-3.3494-3.7101v-7.3615h-2.1311v-2.1615h2.1297v-3.1582h2.9067zm7.5972 16.152h-2.9074v-18.445h2.9074zm6.2568 0h-2.9074v-12.993h2.9074zm-3.0868-16.368c0-0.44746 0.14121-0.81977 0.4243-1.1163 0.28378-0.2958 0.6883-0.44404 1.2142-0.44404 0.52663 0 0.9332 0.14824 1.2211 0.44404 0.28651 0.29648 0.42976 0.6688 0.42976 1.1169 0 0.43994-0.14325 0.80611-0.42976 1.0985-0.28787 0.29238-0.69444 0.43858-1.2211 0.43858-0.52595 0-0.93047-0.14619-1.2142-0.43858-0.2831-0.2917-0.4243-0.65855-0.4243-1.0985zm7.2739 16.368v-10.833h-1.9742v-2.1615h1.9742v-1.1887c0-1.4414 0.39838-2.5536 1.1958-3.3385 0.79813-0.78425 1.9141-1.1764 3.3494-1.1764 0.51094 0 1.0533 0.07173 1.6276 0.21587l-0.0716 2.2817c-0.36686-0.06819-0.73951-0.10022-1.1126-0.09564-1.3882 0-2.082 0.71593-2.082 2.1492v1.1525h2.6318v2.1615h-2.6318v10.832h-2.9067zm12.19-4.1788 2.6318-8.8146h3.0984l-5.1435 14.963c-0.78994 2.1854-2.1297 3.2784-4.02 3.2784-0.42294 0-0.88953-0.07241-1.3998-0.21656v-2.2578l0.5505 0.03621c0.73333 0 1.2859-0.1339 1.657-0.40237 0.37042-0.26779 0.66374-0.71798 0.87931-1.3506l0.41816-1.1169-4.5459-12.933h3.1345z" fill="#0e1e25"/>
    <path d="m31.63 24.751-0.01245-0.0053c-0.0072-0.0028-0.01431-0.0053-0.02056-0.01167-0.02078-0.02234-0.03002-0.05309-0.02502-0.08323l0.69076-4.2293 3.2393 3.2449-3.3689 1.4354c-0.0092 0.0038-0.0194 0.0057-0.02949 0.0053h-0.0134c-0.0044-0.0028-0.0089-0.0063-0.01786-0.01521-0.12538-0.1398-0.2753-0.25536-0.44234-0.34096zm4.6986-0.25773 3.4636 3.4686c0.71936 0.72129 1.0795 1.081 1.2108 1.4981 0.01967 0.06176 0.03574 0.12349 0.04826 0.18703l-8.2775-3.5107c-0.0044-0.0019-0.0089-0.0037-0.0134-0.0053-0.03306-0.01342-0.07149-0.02863-0.07149-0.06264s0.03931-0.05012 0.07237-0.06353l0.01074-0.0044zm4.5816 6.267c-0.17872 0.33648-0.52724 0.68549-1.117 1.277l-3.9051 3.9098-5.0507-1.0533-0.0268-0.0053c-0.04469-0.0072-0.09204-0.01521-0.09204-0.05548-0.03878-0.42177-0.25077-0.80846-0.58532-1.0676-0.02056-0.02058-0.0152-0.0528-0.0089-0.08233 0-0.0044 0-0.0089 0.0018-0.01258l0.94991-5.8401 0.0035-0.01969c0.0053-0.04475 0.0134-0.09665 0.05362-0.09665 0.41121-0.05123 0.78467-0.26563 1.0366-0.59511 8e-3 -0.0089 0.0134-0.0188 0.02413-0.02417 0.02859-0.01343 0.06255 0 0.09204 0.01258l8.6234 3.653zm-5.9202 6.0862-6.4215 6.4307 1.0991-6.7654 0.0018-0.0089c8.87e-4 -0.0089 0.0028-0.01789 0.0053-0.02595 0.0089-0.02148 0.03217-0.03043 0.05451-0.03938l0.01074-0.0044c0.24066-0.10283 0.45352-0.2614 0.62106-0.46266 0.02145-0.02506 0.04736-0.04922 0.08042-0.0537 0.0086-0.0014 0.01733-0.0014 0.02591 0l4.5217 0.93069zm-7.7807 7.7919-0.72382 0.72487-8.0023-11.582c-0.0029-0.0042-0.0059-0.0084-0.0089-0.01258-0.01245-0.01701-0.02591-0.03401-0.02324-0.0537 0-0.01432 0.0099-0.02684 0.01966-0.03758l0.0089-0.01165c0.02413-0.03581 0.04469-0.07159 0.06702-0.11008l0.01787-0.03133 0.0028-0.0028c0.01258-0.02148 0.02413-0.04207 0.04557-0.0537 0.01876-0.0089 0.04469-0.0053 0.06524-8.87e-4l8.8655 1.831c0.02479 0.0038 0.04817 0.01403 0.06791 0.02953 0.01165 0.01166 0.01431 0.02417 0.01698 0.03849 0.12535 0.47498 0.4652 0.86398 0.91863 1.0515 0.02502 0.01258 0.01431 0.04027 0.0028 0.0698-0.0058 0.01297-0.01035 0.02643-0.0134 0.04027-0.1117 0.68012-1.0697 6.531-1.327 8.1105zm-1.512 1.5133c-0.53349 0.52888-0.84804 0.80898-1.2037 0.92174-0.35067 0.11105-0.72702 0.11105-1.0777 0-0.41642-0.13244-0.77655-0.49219-1.4959-1.2135l-8.0363-8.0478 2.0991-3.2601c0.0099-0.01611 0.01966-0.03043 0.03574-0.04207 0.02233-0.01611 0.05451-0.0089 0.08132 0 0.4818 0.14557 0.9991 0.11931 1.4637-0.07427 0.02413-0.0089 0.04826-0.01521 0.06702 0.0018 0.0095 0.0085 0.01778 0.01818 0.02502 0.02863l8.0416 11.686zm-12.588-9.1154-1.8435-1.8462 3.6406-1.5553c0.0093-0.0041 0.01933-0.0062 0.02949-0.0063 0.03038 0 0.04826 0.03043 0.06435 0.05816 0.03659 0.05637 0.07533 0.1113 0.11617 0.16466l0.01165 0.01432c0.01074 0.01521 0.0035 0.03043-0.0072 0.04475l-2.0106 3.1259zm-2.6594-2.6632-2.3323-2.3357c-0.39676-0.39733-0.68451-0.68549-0.88468-0.93338l7.0917 1.473c0.0089 0.0017 0.01784 0.0032 0.02681 0.0044 0.04379 0.0072 0.09203 0.01522 0.09203 0.05638 0 0.04475-0.05272 0.06533-0.09741 0.08233l-0.02055 0.0089zm-3.6245-4.47c0.00812-0.15046 0.035107-0.2993 0.080419-0.44297 0.13225-0.41702 0.49149-0.77677 1.2117-1.4981l2.9847-2.989c1.3742 1.9973 2.7522 3.992 4.1339 5.9842 0.02413 0.03221 0.05093 0.06802 0.02324 0.09486-0.13047 0.14408-0.26094 0.30158-0.35298 0.4725-0.01 0.02196-0.02536 0.04106-0.04469 0.05549-0.01165 0.0072-0.02413 0.0044-0.03753 0.0018h-0.0018l-7.9969-1.6797zm5.0757-5.73 4.0114-4.019c0.378 0.16556 1.7515 0.74634 2.9784 1.2654 0.92936 0.39376 1.7765 0.75171 2.0428 0.86805 0.0268 0.01074 0.05093 0.02147 0.06255 0.04832 0.0072 0.01611 0.0035 0.03669 0 0.0537-0.12905 0.58931 0.0466 1.2041 0.46736 1.6359 0.0268 0.02685 0 0.06532-0.02324 0.09845l-0.01245 0.0188-4.0749 6.3207c-0.01074 0.01789-0.02055 0.03311-0.03843 0.04475-0.02145 0.01343-0.05184 0.0072-0.07685 8.87e-4 -0.15849-0.04158-0.32141-0.06382-0.48523-0.06622-0.14655 0-0.30562 0.02685-0.46646 0.05638h-8.87e-4c-0.01787 0.0028-0.03396 0.0063-0.04826-0.0044-0.0158-0.01297-0.02937-0.02833-0.04021-0.04564l-4.2965-6.2759zm4.8237-4.8307 5.1955-5.2029c0.71936-0.72039 1.0795-1.081 1.4959-1.2126 0.35068-0.11105 0.72702-0.11105 1.0777 0 0.41642 0.13155 0.77655 0.49219 1.4959 1.2126l1.126 1.1276-3.6951 5.7309c-0.0091 0.01668-0.02161 0.0313-0.03664 0.04295-0.02234 0.01521-0.05362 0.0089-0.08043 0-0.59144-0.17974-1.2333-0.05587-1.7157 0.33111-0.02413 0.02506-0.05986 0.01074-0.09025-0.0028-0.48255-0.2103-4.2357-1.7987-4.7728-2.0269zm11.176-3.2896 3.4118 3.4167-0.82212 5.0991v0.01343c-7.21e-4 0.01165-0.0032 0.02307-0.0072 0.03401-0.0089 0.01789-0.0268 0.02148-0.04469 0.02685-0.17577 0.05332-0.34132 0.13591-0.4897 0.24431-0.0064 0.0046-0.01231 0.0097-0.01787 0.01521-0.0099 0.01074-0.01966 0.02057-0.03574 0.02237-0.0131 3.93e-4 -0.02614-0.0017-0.03843-0.0063l-5.199-2.2122-0.0099-0.0044c-0.03306-0.01342-0.07239-0.02954-0.07239-0.06353-0.03056-0.29014-0.12518-0.56984-0.27702-0.81883-0.02503-0.04116-0.05272-0.08413-0.03129-0.12618zm-3.5137 7.7015 4.8738 2.0672c0.0268 0.01258 0.0563 0.02416 0.06791 0.0519 0.0047 0.01669 0.0047 0.03432 0 0.05101-0.01431 0.07159-0.0268 0.15303-0.0268 0.23536v0.13692c0 0.03401-0.03485 0.04832-0.06702 0.06176l-0.0099 0.0035c-0.77208 0.33022-10.84 4.6293-10.855 4.6293-0.01519 0-0.03128 0-0.04646-0.01521-0.0268-0.02684 0-0.06444 0.02413-0.09845 0.0043-0.0059 0.0084-0.01192 0.01245-0.01789l4.0052-6.2106 0.0072-0.01074c0.02324-0.03758 0.05004-0.07965 0.09293-0.07965l0.04022 0.0063c0.09115 0.01258 0.17157 0.02415 0.25289 0.02415 0.60766 0 1.1706-0.29621 1.5102-0.80272 0.0081-0.01354 0.01835-0.02562 0.03038-0.03581 0.02413-0.01789 0.05987-0.0089 0.08757 0.0035zm-5.5815 8.2196 10.974-4.6866s0.01608 0 0.03128 0.01521c0.05987 0.05996 0.11081 0.10022 0.15996 0.13782l0.02413 0.01521c0.02233 0.01258 0.04469 0.02684 0.04646 0.05012 0 0.0089 0 0.01432-0.0019 0.02237l-0.94008 5.7828-0.0035 0.02327c-0.0063 0.04475-0.01245 0.09576-0.05451 0.09576-0.50883 0.0344-0.96793 0.31802-1.2269 0.75798l-0.0044 0.0072c-0.01245 0.02059-0.02413 0.04027-0.04469 0.05101-0.01876 0.0089-0.04289 0.0053-0.06255 8.87e-4l-8.7511-1.8077c-0.0089-0.0018-0.13583-0.46445-0.14566-0.46535z" fill="url(#a)"/>
  </g>
</svg>
