<?xml version="1.0" encoding="UTF-8"?>
<!-- Created with Inkscape (http://www.inkscape.org/) -->
<svg id="a" width="396mm" height="468mm" version="1.1" viewBox="0 0 1403.1 1658.3" xmlns="http://www.w3.org/2000/svg" xmlns:cc="http://creativecommons.org/ns#" xmlns:dc="http://purl.org/dc/elements/1.1/" xmlns:rdf="http://www.w3.org/1999/02/22-rdf-syntax-ns#">
  <metadata id="b">
    <rdf:RDF>
      <cc:Work rdf:about="">
        <dc:format>image/svg+xml</dc:format>
        <dc:type rdf:resource="http://purl.org/dc/dcmitype/StillImage"/>
      </cc:Work>
    </rdf:RDF>
  </metadata>
  <g id="c" transform="translate(0 605.91)">
    <g stroke-width="1px">
      <g id="d" fill="#214152">
        <path id="e" d="m125.34-422.46v-12.6h-17.64v-100.44h17.64v-12.6h-50.4v12.6h17.64v100.44h-17.64v12.6h50.4z"/>
        <path id="f" d="m152.95-422.46h57.06c18.54 0 32.4-15.66 32.4-36.36 0-20.88-15.66-28.62-24.66-29.16v-1.08c8.28-1.26 20.34-7.92 20.34-26.64 0-19.62-12.78-32.4-33.48-32.4h-51.66v125.64zm15.12-58.32h37.26c12.96 0 20.88 6.84 20.88 19.44v6.12c0 12.6-7.92 19.44-20.88 19.44h-37.26v-45zm0-54h34.74c11.88 0 19.08 6.3 19.08 17.46v6.12c0 11.16-7.2 17.46-19.08 17.46h-34.74v-41.04z"/>
        <path id="g" d="m368.11-422.46h14.76v-125.64h-19.8l-36.18 67.68h-0.72l-36-67.68h-19.8v125.64h14.76v-105.66h0.9l10.62 20.88 29.88 54.72 30.06-54.72 10.62-21.06h0.9v105.84z"/>
        <path id="h" d="m473.93-422.46v-53.64h34.92c22.5 0 35.1-13.86 35.1-36s-12.6-36-35.1-36h-50.04v125.64h15.12zm0-112.32h34.92c11.88 0 18.9 6.48 18.9 18v9.36c0 11.52-7.02 18-18.9 18h-34.92v-45.36z"/>
        <path id="i" d="m594.43-422.46v-12.6h-13.68v-120.6h-14.4v118.26c0 8.64 5.4 14.94 15.3 14.94h12.78z"/>
        <path id="j" d="m650.14-420.3c17.46 0 30.78-8.64 36.72-21.24l-10.26-7.38c-4.86 10.26-13.86 16.02-25.56 16.02-17.28 0-27.54-12.06-27.54-28.08v-4.32h66.78v-6.84c0-26.28-15.3-45.36-40.14-45.36-25.2 0-41.76 19.08-41.76 48.6s16.56 48.6 41.76 48.6zm0-85.14c14.76 0 24.66 10.98 24.66 27.36v1.98h-51.3v-1.26c0-16.2 10.98-28.08 26.64-28.08z"/>
        <path id="k" d="m715.86-422.46 26.64-37.26h0.54l24.66 37.26h16.38l-33.48-47.88 32.76-45h-16.02l-24.48 34.56h-0.54l-23.58-34.56h-16.92l32.94 46.08-34.38 46.8h15.48z"/>
        <path id="l" d="m882.56-420.3c27 0 43.2-14.76 43.2-37.8 0-18.72-10.62-29.52-35.1-35.1l-10.26-2.34c-15.84-3.6-23.58-9-23.58-20.88 0-13.5 9.9-20.52 25.92-20.52 14.58 0 24.12 5.94 30.96 15.48l11.34-8.28c-9.36-13.32-22.68-20.52-41.58-20.52-24.66 0-41.58 12.06-41.58 34.38 0 19.26 12.6 29.34 35.46 34.56l10.26 2.34c16.56 3.78 23.22 9.72 23.22 21.6 0 14.4-9.72 23.76-27.72 23.76-14.58 0-25.02-6.3-33.84-18l-11.16 9.36c10.08 13.68 24.3 21.96 44.46 21.96z"/>
        <path id="m" d="m1025.9-422.46v-12.6h-10.62v-51.12c0-19.62-13.32-31.32-35.64-31.32-16.74 0-27.9 8.28-32.94 18.18l8.64 8.1c5.04-8.46 12.42-13.86 23.58-13.86 14.76 0 21.96 7.2 21.96 20.34v9.18h-18.36c-27 0-39.6 9.72-39.6 27.18 0 17.28 11.52 28.08 31.14 28.08 12.96 0 22.86-5.94 26.82-17.28h0.9c1.08 8.64 5.4 15.12 16.02 15.12h8.1zm-49.5-10.08c-11.16 0-18.36-5.22-18.36-14.4v-3.78c0-9 7.38-14.04 23.76-14.04h19.08v15.3c0 9.54-10.26 16.92-24.48 16.92z"/>
        <path id="n" d="m1060.6-422.46v-64.44c0-11.88 11.16-17.64 22.68-17.64 13.86 0 21.06 8.46 21.06 25.02v57.06h14.4v-59.58c0-22.5-12.06-35.46-31.14-35.46-13.86 0-21.78 6.84-26.28 17.28h-0.72v-15.12h-14.4v92.88h14.4z"/>
        <path id="o" d="m1176.4-420.3c21.24 0 34.38-10.98 34.38-28.98 0-14.04-7.92-23.04-28.44-26.1l-7.2-1.08c-11.52-1.8-17.82-5.4-17.82-14.4 0-8.82 6.3-14.4 18.18-14.4s19.8 5.58 23.94 11.34l9.54-8.64c-7.56-9.36-17.46-14.94-32.4-14.94-18.9 0-33.12 9-33.12 27.36 0 17.28 12.78 24.3 29.88 26.82l7.38 1.08c12.24 1.8 16.2 7.38 16.2 14.58 0 9.54-7.2 15.12-19.44 15.12-11.7 0-20.34-5.22-27.54-14.22l-10.26 8.28c8.28 10.98 19.62 18.18 36.72 18.18z"/>
      </g>
      <g id="p">
        <path id="q" d="m1284.4 66.453v-43.75h-36.875v-177.5c0-68.125-46.25-108.75-123.75-108.75-58.125 0-96.875 28.75-114.38 63.125l30 28.125c17.5-29.375 43.125-48.125 81.875-48.125 51.25 0 76.25 25 76.25 70.625v31.875h-63.75c-93.75 0-137.5 33.75-137.5 94.375 0 60 40 97.5 108.12 97.5 45 0 79.375-20.625 93.125-60h3.125c3.75 30 18.75 52.5 55.625 52.5h28.125zm-171.88-35c-38.75 0-63.75-18.125-63.75-50v-13.125c0-31.25 25.625-48.75 82.5-48.75h66.25v53.125c0 33.125-35.625 58.75-85 58.75z" fill="#214152"/>
      </g>
      <g id="r" fill="#214152">
        <path id="s" d="m183.07-131.54-43.92-125.64h-19.26l-43.92 125.64h15.3l12.6-37.08h50.76l12.6 37.08h15.84zm-32.22-50.4h-43.38l21.24-61.2h0.9l21.24 61.2z"/>
        <path id="t" d="m278.75-131.54v-12.6h-10.62v-51.12c0-19.62-13.32-31.32-35.64-31.32-16.74 0-27.9 8.28-32.94 18.18l8.64 8.1c5.04-8.46 12.42-13.86 23.58-13.86 14.76 0 21.96 7.2 21.96 20.34v9.18h-18.36c-27 0-39.6 9.72-39.6 27.18 0 17.28 11.52 28.08 31.14 28.08 12.96 0 22.86-5.94 26.82-17.28h0.9c1.08 8.64 5.4 15.12 16.02 15.12h8.1zm-49.5-10.08c-11.16 0-18.36-5.22-18.36-14.4v-3.78c0-9 7.38-14.04 23.76-14.04h19.08v15.3c0 9.54-10.26 16.92-24.48 16.92z"/>
        <path id="u" d="m419.78-131.54v-13.32h-61.56v-46.44h57.96v-13.32h-57.96v-39.24h61.56v-13.32h-76.68v125.64h76.68z"/>
        <path id="v" d="m479.94-129.38c17.46 0 30.78-8.64 36.72-21.24l-10.26-7.38c-4.86 10.26-13.86 16.02-25.56 16.02-17.28 0-27.54-12.06-27.54-28.08v-4.32h66.78v-6.84c0-26.28-15.3-45.36-40.14-45.36-25.2 0-41.76 19.08-41.76 48.6s16.56 48.6 41.76 48.6zm0-85.14c14.76 0 24.66 10.98 24.66 27.36v1.98h-51.3v-1.26c0-16.2 10.98-28.08 26.64-28.08z"/>
        <path id="w" d="m602.91-185.54h29.34l27.18 54h17.1l-28.8-55.44c16.38-3.78 25.2-16.2 25.2-34.56 0-22.86-13.14-35.64-35.1-35.64h-50.04v125.64h15.12v-54zm0-12.96v-45.36h34.92c11.88 0 18.9 6.48 18.9 18v9.36c0 11.52-7.02 18-18.9 18h-34.92z"/>
        <path id="x" d="m716.06-131.54v-63c0-8.82 9.36-15.48 24.84-15.48h8.46v-14.4h-5.58c-15.12 0-23.58 8.28-26.82 17.1h-0.9v-17.1h-14.4v92.88h14.4z"/>
      </g>
      <g id="y" fill="#214152">
        <path id="z" d="m176.27 54.331-16.92-125.64h-19.26l-67.14 125.64h15.48l19.44-37.08h48.78l4.68 37.08h14.94zm-21.06-50.04h-40.68l32.04-61.74h0.9l7.74 61.74z"/>
        <path id="aa" d="m277.52 54.331 2.34-12.24h-13.14l16.2-80.64h-13.86l-3.06 15.12h-0.72c-2.7-11.7-13.14-17.28-24.3-17.28-30.78 0-45.36 34.38-45.36 61.74 0 21.96 11.34 35.46 28.26 35.46 13.68 0 22.5-6.84 30.06-22.32h0.54l-0.9 4.14c-0.36 1.8-0.54 3.42-0.54 4.86 0 6.66 3.96 11.16 12.06 11.16h12.42zm-50.22-10.44c-12.06 0-17.46-9.18-17.46-21.06 0-2.88 0.36-6.12 0.9-9.18l2.7-13.5c3.6-18 13.5-28.26 29.16-28.26 14.22 0 22.32 10.08 20.7 18.18l-4.5 22.32c-1.8 9-5.4 16.02-11.7 22.32-5.4 5.4-11.16 9.18-19.8 9.18z"/>
        <path id="ab" d="m418.16 54.331 2.52-12.96h-62.28l9.36-46.98h53.46l2.52-12.96h-53.28l7.92-39.78h59.22l2.7-12.96h-73.98l-25.2 125.64h77.04z"/>
        <path id="ac" d="m477.86 56.491c13.32 0 26.82-5.04 38.34-19.08l-9-8.1c-7.2 8.82-16.74 14.76-28.44 14.76-14.4 0-22.14-8.82-22.14-21.96 0-1.98 0.18-5.04 0.54-7.56 43.2-0.36 64.08-10.08 64.08-30.42 0-16.74-14.04-24.84-29.88-24.84-29.16 0-48.6 27.54-48.6 58.32 0 25.2 12.96 38.88 35.1 38.88zm12.06-85.32c8.82 0 17.1 2.88 17.1 12.78 0 12.78-8.28 18.36-48.06 19.8l1.08-5.22c3.42-16.56 15.3-27.36 29.88-27.36z"/>
        <path id="ad" d="m600.99 0.33146h28.44l17.1 54h15.66l-18.36-55.44c20.16-3.96 32.94-20.88 32.94-40.14 0-17.28-9-30.06-31.14-30.06h-44.82l-25.2 125.64h14.58l10.8-54zm2.7-12.78 9-45.9h31.86c12.6 0 17.1 5.94 17.1 14.58 0 2.88-0.54 5.22-2.16 13.32-2.34 11.7-10.8 18-22.68 18h-33.12z"/>
        <path id="ae" d="m701.43 54.331 11.16-55.26c2.52-12.6 11.88-23.4 28.98-23.4h6.48l2.7-14.22h-5.76c-15.12 0-22.86 9.36-27.9 18.54h-0.9l3.96-18.54h-13.86l-18.72 92.88h13.86z"/>
      </g>
      <g id="af" fill="#5a6872">
        <path id="ag" d="m524.47 349.3h20.25v-130.88h-24.938l-35.062 66.562h-0.5625l-35.25-66.562h-24.562v130.88h20.25v-100.31h0.75l10.5 21.375 28.5 52.312 28.875-52.5 10.312-20.812h0.9375v99.938z"/>
        <path id="ah" d="m658.43 349.3v-16.688h-10.312v-48.938c0-21.75-14.062-34.125-39.188-34.125-18.938 0-30.375 8.0625-36.75 18.938l12.188 11.062c4.875-7.6875 11.812-13.312 23.25-13.312 13.688 0 20.062 6.9375 20.062 18.75v8.25h-17.625c-27.188 0-41.625 9.9375-41.625 29.25 0 17.625 11.438 29.062 31.5 29.062 14.25 0 24.75-6.375 28.5-18.562h0.9375c1.3125 9.5625 6.9375 16.312 17.625 16.312h11.438zm-52.688-13.312c-10.125 0-16.5-4.5-16.5-13.125v-3.375c0-8.4375 6.9375-13.125 21.188-13.125h17.25v14.062c0 9.5625-9.375 15.562-21.938 15.562z"/>
        <path id="ai" d="m688.77 234.36c8.4375 0 12-4.5 12-10.688v-3.1875c0-6.1875-3.5625-10.688-12-10.688s-12.188 4.5-12.188 10.688v3.1875c0 6.1875 3.75 10.688 12.188 10.688zm-10.312 114.94h20.438v-97.5h-20.438v97.5z"/>
        <path id="aj" d="m748.7 349.3v-65.25c0-11.438 10.5-16.875 21.188-16.875 12.562 0 18.375 7.6875 18.375 22.875v59.25h20.438v-61.875c0-24-11.812-37.875-31.688-37.875-15 0-23.25 7.875-27.375 18.375h-0.9375v-16.125h-20.438v97.5h20.438z"/>
        <path id="ak" d="m842.09 349.3h20.438v-80.812h20.438v-16.688h-20.438v-24.562h20.438v-16.688h-16.125c-16.312 0-24.75 9.375-24.75 25.125v16.125h-14.812v16.688h14.812v80.812z"/>
        <path id="al" d="m921.19 349.3v-62.25c0-10.125 9-15.562 25.125-15.562h8.0625v-19.688h-5.4375c-15.562 0-24 8.8125-26.812 18.75h-0.9375v-18.75h-20.438v97.5h20.438z"/>
        <path id="am" d="m1053.9 349.3v-16.688h-10.312v-48.938c0-21.75-14.062-34.125-39.188-34.125-18.937 0-30.375 8.0625-36.75 18.938l12.188 11.062c4.875-7.6875 11.812-13.312 23.25-13.312 13.688 0 20.062 6.9375 20.062 18.75v8.25h-17.625c-27.187 0-41.625 9.9375-41.625 29.25 0 17.625 11.438 29.062 31.5 29.062 14.25 0 24.75-6.375 28.5-18.562h0.9375c1.3125 9.5625 6.9375 16.312 17.625 16.312h11.438zm-52.688-13.312c-10.125 0-16.5-4.5-16.5-13.125v-3.375c0-8.4375 6.9375-13.125 21.187-13.125h17.25v14.062c0 9.5625-9.375 15.562-21.938 15.562z"/>
        <path id="an" d="m1094.4 349.3v-65.438c0-11.25 9.9375-16.688 20.062-16.688 12 0 17.812 7.5 17.812 22.688v59.438h20.438v-65.438c0-11.25 9.5625-16.688 19.875-16.688 12.375 0 18 7.6875 18 22.688v59.438h20.438v-61.875c0-24-11.438-37.875-30.75-37.875-15.75 0-25.875 9-29.438 19.875h-0.5625c-4.6875-13.5-15.75-19.875-28.875-19.875-14.812 0-22.125 8.25-26.062 18.375h-0.9375v-16.125h-20.438v97.5h20.438z"/>
        <path id="ao" d="m1277.7 351.55c18.188 0 32.438-7.875 39.75-19.688l-12-11.812c-5.625 9-13.688 14.625-25.688 14.625-16.5 0-25.688-10.688-25.688-25.688v-3.1875h66.938v-7.6875c0-27-14.625-48.562-43.312-48.562-27.75 0-44.812 19.875-44.812 51s17.062 51 44.812 51zm0-86.062c13.5 0 21.75 9.9375 21.75 24.938v1.875h-45.375v-1.3125c0-15 9.5625-25.5 23.625-25.5z"/>
      </g>
    </g>
    <path id="ap" d="m-0.0017248 470.51h1406.1v581.85h-1406.1z" fill="#3d70b2" stroke="#000" stroke-dasharray="2.98964981, 2.98964981" stroke-width=".99655"/>
    <g id="aq" fill="#f5f7fa" stroke-width="1px">
      <path id="ar" d="m129.68 632.14v-9.625h-8.1125v-39.05c0-14.988-10.175-23.925-27.225-23.925-12.788 0-21.312 6.325-25.162 13.888l6.6 6.1875c3.85-6.4625 9.4875-10.588 18.012-10.588 11.275 0 16.775 5.5 16.775 15.538v7.0125h-14.025c-20.625 0-30.25 7.425-30.25 20.762 0 13.2 8.8 21.45 23.788 21.45 9.9 0 17.462-4.5375 20.487-13.2h0.6875c0.825 6.6 4.125 11.55 12.238 11.55h6.1875zm-37.812-7.7c-8.525 0-14.025-3.9875-14.025-11v-2.8875c0-6.875 5.6375-10.725 18.15-10.725h14.575v11.688c0 7.2875-7.8375 12.925-18.7 12.925z"/>
      <path id="as" d="m177.74 632.14h11v-11.55h0.55c4.2625 8.8 11 13.2 20.762 13.2 17.738 0 28.875-14.438 28.875-37.125s-11.138-37.125-28.875-37.125c-9.7625 0-17.05 4.2625-20.762 13.2h-0.55v-42.35h-11v101.75zm29.288-8.25c-10.038 0-18.288-5.225-18.288-14.438v-26.4c0-7.8375 8.25-13.612 18.288-13.612 12.375 0 20.075 8.525 20.075 21.175v12.1c0 12.65-7.7 21.175-20.075 21.175z"/>
      <path id="at" d="m316.4 633.79c13.475 0 22.688-6.6 27.225-16.775l-7.975-5.3625c-3.85 8.1125-10.312 12.375-19.25 12.375-13.062 0-19.8-8.9375-19.8-21.312v-12.1c0-12.375 6.7375-21.312 19.8-21.312 8.6625 0 14.712 4.2625 17.325 11.55l9.2125-4.675c-4.125-9.7625-12.512-16.638-26.538-16.638-19.938 0-31.625 14.438-31.625 37.125s11.688 37.125 31.625 37.125z"/>
      <path id="au" d="m437.15 632.14h11v-101.75h-11v42.35h-0.55c-3.7125-8.9375-11-13.2-20.762-13.2-17.738 0-28.875 14.438-28.875 37.125s11.138 37.125 28.875 37.125c9.7625 0 16.5-4.4 20.762-13.2h0.55v11.55zm-18.288-8.25c-12.375 0-20.075-8.525-20.075-21.175v-12.1c0-12.65 7.7-21.175 20.075-21.175 10.038 0 18.288 5.775 18.288 13.612v26.4c0 9.2125-8.25 14.438-18.288 14.438z"/>
      <path id="av" d="m530.71 633.79c13.338 0 23.512-6.6 28.05-16.225l-7.8375-5.6375c-3.7125 7.8375-10.588 12.238-19.525 12.238-13.2 0-21.038-9.2125-21.038-21.45v-3.3h51.012v-5.225c0-20.075-11.688-34.65-30.662-34.65-19.25 0-31.9 14.575-31.9 37.125s12.65 37.125 31.9 37.125zm0-65.038c11.275 0 18.838 8.3875 18.838 20.9v1.5125h-39.188v-0.9625c0-12.375 8.3875-21.45 20.35-21.45z"/>
      <path id="aw" d="m615.84 632.14h11v-61.325h15.262v-9.625h-15.262v-21.175h15.262v-9.625h-10.725c-10.45 0-15.538 6.7375-15.538 16.5v14.3h-11.55v9.625h11.55v61.325z"/>
      <path id="ax" d="m748.88 639.98c0-11.688-7.5625-18.838-25.162-18.838h-15.125c-6.4625 0-10.862-1.1-10.862-5.3625 0-4.4 4.675-6.7375 9.35-7.975 2.0625 0.4125 4.5375 0.6875 6.875 0.6875 16.225 0 26.812-10.038 26.812-24.475 0-7.5625-3.025-13.888-8.1125-18.288v-4.5375h13.475v-9.625h-10.588c-5.9125 0-8.25 3.9875-8.25 9.4875v1.2375c-3.85-1.7875-8.3875-2.75-13.475-2.75-16.088 0-26.675 10.038-26.675 24.475 0 9.9 4.95 17.738 13.338 21.725v0.55c-7.15 1.7875-12.238 5.225-12.238 12.375 0 4.8125 2.3375 7.975 6.325 9.9v1.5125c-7.0125 1.925-11.275 6.05-11.275 13.75 0 11.138 9.075 17.462 31.212 17.462 22.825 0 34.375-6.7375 34.375-21.312zm-10.312 0.825c0 7.7-7.15 11.55-19.388 11.55h-10.175c-11.138 0-15.4-5.0875-15.4-11.275 0-4.4 2.0625-7.5625 6.6-9.625h23.65c11 0 14.712 3.7125 14.712 9.35zm-24.612-41.112c-9.35 0-15.262-4.4-15.262-13.75v-3.85c0-9.35 5.9125-13.75 15.262-13.75s15.262 4.4 15.262 13.75v3.85c0 9.35-5.9125 13.75-15.262 13.75z"/>
      <path id="ay" d="m794.07 632.14h11v-49.225c0-9.075 8.525-13.475 17.325-13.475 10.588 0 16.088 6.4625 16.088 19.112v43.588h11v-45.512c0-17.188-9.2125-27.088-23.788-27.088-10.588 0-16.638 5.225-20.075 13.2h-0.55v-42.35h-11v101.75z"/>
      <path id="az" d="m910.22 544.55c4.675 0 6.7375-2.475 6.7375-6.1875v-1.7875c0-3.7125-2.0625-6.1875-6.7375-6.1875s-6.7375 2.475-6.7375 6.1875v1.7875c0 3.7125 2.0625 6.1875 6.7375 6.1875zm-5.5 87.588h11v-70.95h-11v70.95z"/>
      <path id="ba" d="m971.59 650.01h-11.55v9.625h7.15c10.588 0 15.4-6.7375 15.4-16.5v-81.95h-11v88.825zm5.5-105.46c4.675 0 6.7375-2.475 6.7375-6.1875v-1.7875c0-3.7125-2.0625-6.1875-6.7375-6.1875s-6.7375 2.475-6.7375 6.1875v1.7875c0 3.7125 2.0625 6.1875 6.7375 6.1875z"/>
      <path id="bb" d="m1038.5 632.14h11v-25.3l10.588-10.862 23.512 36.162h13.338l-28.875-42.9 26.262-28.05h-13.338l-20.075 21.588-10.862 12.1h-0.55v-64.488h-11v101.75z"/>
      <path id="bc" d="m1164.9 632.14v-9.625h-10.45v-92.125h-11v90.338c0 6.6 4.125 11.412 11.688 11.412h9.7625z"/>
      <path id="bd" d="m1224.3 632.14v-49.225c0-9.075 8.25-13.475 16.912-13.475 10.45 0 15.262 6.4625 15.262 19.112v43.588h11v-49.225c0-9.075 7.975-13.475 16.638-13.475 10.725 0 15.538 6.6 15.538 19.112v43.588h11v-45.512c0-17.188-8.6625-27.088-23.1-27.088-12.1 0-18.975 6.7375-21.588 14.438h-0.275c-3.85-10.175-12.375-14.438-21.725-14.438-11 0-15.95 5.9125-19.112 13.2h-0.55v-11.55h-11v70.95h11z"/>
      <path id="be" d="m51.644 804.01v-49.225c0-9.075 8.525-13.475 17.325-13.475 10.588 0 16.088 6.4625 16.088 19.112v43.588h11v-45.512c0-17.188-9.2125-27.088-23.788-27.088-10.588 0-16.638 5.225-20.075 13.2h-0.55v-11.55h-11v70.95h11z"/>
      <path id="bf" d="m178.1 805.66c18.975 0 32.038-14.575 32.038-37.125s-13.062-37.125-32.038-37.125-32.038 14.575-32.038 37.125 13.062 37.125 32.038 37.125zm0-9.7625c-11.825 0-20.212-7.2875-20.212-22.275v-10.175c0-14.988 8.3875-22.275 20.212-22.275s20.212 7.2875 20.212 22.275v10.175c0 14.988-8.3875 22.275-20.212 22.275z"/>
      <path id="bg" d="m260.86 831.51h11v-39.05h0.55c4.2625 8.8 11 13.2 20.762 13.2 17.738 0 28.875-14.438 28.875-37.125s-11.138-37.125-28.875-37.125c-9.7625 0-17.05 4.2625-20.762 13.2h-0.55v-11.55h-11v98.45zm29.288-35.75c-10.038 0-18.288-5.225-18.288-14.438v-26.4c0-7.8375 8.25-13.612 18.288-13.612 12.375 0 20.075 8.525 20.075 21.175v12.1c0 12.65-7.7 21.175-20.075 21.175z"/>
      <path id="bh" d="m418.49 831.51h11v-98.45h-11v11.55h-0.55c-3.7125-8.9375-11-13.2-20.762-13.2-17.738 0-28.875 14.438-28.875 37.125s11.138 37.125 28.875 37.125c9.7625 0 16.5-4.4 20.762-13.2h0.55v39.05zm-18.288-35.75c-12.375 0-20.075-8.525-20.075-21.175v-12.1c0-12.65 7.7-21.175 20.075-21.175 10.038 0 18.288 5.775 18.288 13.612v26.4c0 9.2125-8.25 14.438-18.288 14.438z"/>
      <path id="bi" d="m496.37 804.01v-48.125c0-6.7375 7.15-11.825 18.975-11.825h6.4625v-11h-4.2625c-11.55 0-18.012 6.325-20.488 13.062h-0.6875v-13.062h-11v70.95h11z"/>
      <path id="bj" d="m589.67 805.66c16.225 0 26.262-8.3875 26.262-22.138 0-10.725-6.05-17.6-21.725-19.938l-5.5-0.825c-8.8-1.375-13.612-4.125-13.612-11 0-6.7375 4.8125-11 13.888-11s15.125 4.2625 18.288 8.6625l7.2875-6.6c-5.775-7.15-13.338-11.412-24.75-11.412-14.438 0-25.3 6.875-25.3 20.9 0 13.2 9.7625 18.562 22.825 20.488l5.6375 0.825c9.35 1.375 12.375 5.6375 12.375 11.138 0 7.2875-5.5 11.55-14.85 11.55-8.9375 0-15.538-3.9875-21.038-10.862l-7.8375 6.325c6.325 8.3875 14.988 13.888 28.05 13.888z"/>
      <path id="bk" d="m697.14 804.01v-9.625h-14.438v-51.7h15.538v-9.625h-15.538v-19.662h-9.9v13.2c0 4.8125-1.5125 6.4625-6.1875 6.4625h-6.6v9.625h11.688v49.638c0 6.875 4.125 11.688 11.688 11.688h13.75z"/>
      <path id="bl" d="m792.28 804.01h11v-70.95h-11v49.088c0 9.35-8.525 13.612-17.188 13.612-10.588 0-16.225-6.4625-16.225-19.112v-43.588h-11v45.512c0 17.188 9.35 27.088 23.925 27.088 11.825 0 17.188-6.4625 19.938-13.2h0.55v11.55z"/>
      <path id="bm" d="m887.66 804.01 25.025-70.95h-10.588l-12.65 35.2-7.7 24.2h-0.6875l-7.7-24.2-12.375-35.2h-11l24.888 70.95h12.788z"/>
      <path id="bn" d="m970.92 804.01h13.338l9.9-34.1 6.05-21.588h0.275l6.1875 21.588 9.9 34.1h13.612l18.838-70.95h-10.312l-7.7 30.662-7.2875 31.075h-0.275l-8.8-31.075-9.2125-30.662h-9.7625l-8.9375 30.662-8.6625 31.075h-0.275l-7.5625-31.075-7.5625-30.662h-10.725l18.975 70.95z"/>
      <path id="bo" d="m1100.4 804.01 20.35-28.462h0.4125l18.838 28.462h12.512l-25.575-36.575 25.025-34.375h-12.238l-18.7 26.4h-0.4125l-18.012-26.4h-12.925l25.162 35.2-26.262 35.75h11.825z"/>
      <path id="bp" d="m1226.3 781.33-3.85 11.55h-0.6875l-3.3-11.55-17.05-48.262h-11l26.538 73.7-5.3625 15.125h-11.138v9.625h5.6375c10.45 0 13.338-2.475 16.5-11l31.762-87.45h-10.862l-17.188 48.262z"/>
      <path id="bq" d="m1348.3 804.01v-9.625h-42.212l41.112-53.075v-8.25h-52.388v9.625h39.05l-40.288 52.112v9.2125h54.725z"/>
    </g>
    <g id="br" fill="#f5f7fa" stroke-width="1px">
      <path id="bs" d="m163.08 997.59c25.05 0 36-19.95 36-54.15s-10.95-54.15-36-54.15-36 19.95-36 54.15 10.95 54.15 36 54.15zm0-10.95c-16.35 0-22.8-14.4-22.8-34.65v-17.1c0-20.25 6.45-34.65 22.8-34.65s22.8 14.4 22.8 34.65v17.1c0 20.25-6.45 34.65-22.8 34.65z"/>
      <path id="bt" d="m325.52 995.79v-11.1h-27v-93.6h-13.8l-33.3 19.35 4.95 9.6 29.55-17.55v82.2h-29.25v11.1h68.85z"/>
      <path id="bu" d="m448.81 984.69h-55.05l28.2-25.35c13.35-12 22.95-23.4 22.95-39.6 0-17.85-11.7-30.45-32.1-30.45-20.25 0-29.55 12.3-33.6 24.6l11.25 4.35c2.85-9.9 8.85-17.7 21.75-17.7s19.35 7.95 19.35 19.5v1.8c0 10.05-7.5 20.55-17.25 29.55l-34.2 31.5v12.9h68.7v-11.1z"/>
      <path id="bv" d="m522 935.49v10.95h12.3c14.7 0 22.5 7.05 22.5 19.35v1.2c0 12.3-7.8 19.35-22.5 19.35-12.75 0-18.9-5.55-24.3-13.8l-9.45 7.2c6.45 9 15.75 17.85 33.9 17.85 21.3 0 35.55-12.45 35.55-30.45 0-15.75-10.8-24.15-22.05-26.4v-0.6c11.1-2.85 20.1-10.95 20.1-24.45 0-16.95-14.1-26.4-31.8-26.4-16.8 0-25.95 8.7-31.2 17.1l9.3 7.2c4.35-7.95 10.8-13.05 21.6-13.05 11.1 0 18.75 5.55 18.75 16.5v1.05c0 10.05-7.2 17.4-21.3 17.4h-11.4z"/>
      <path id="bw" d="m687.89 995.79v-20.55h15.15v-10.5h-15.15v-73.65h-18.75l-43.8 73.05v11.1h50.55v20.55h12zm-12.75-94.95h0.75v63.9h-38.7l37.95-63.9z"/>
      <path id="bx" d="m819.73 891.09h-56.1l-3.75 57.6 10.65 1.5c4.35-4.8 9.15-8.85 18.75-8.85 14.25 0 21.9 7.95 21.9 21.75v1.5c0 13.8-7.65 21.75-21.9 21.75-12.6 0-17.85-5.55-23.25-13.8l-9.45 7.2c6.3 9 15.3 17.85 32.7 17.85 22.05 0 35.25-14.25 35.25-34.65 0-20.25-13.2-32.4-31.2-32.4-10.95 0-16.5 4.5-21.45 11.55h-1.05l3-39.9h45.9v-11.1z"/>
      <path id="by" d="m915.58 997.59c21 0 34.8-14.1 34.8-34.65 0-19.8-12.9-32.25-30.9-32.25-12.75 0-20.25 6.45-25.2 15l-0.75-0.3c5.7-24.3 18.15-37.95 40.5-54.3h-16.2c-16.8 10.95-37.35 35.25-37.35 66.3 0 24.9 13.35 40.2 35.1 40.2zm-0.15-10.95c-13.8 0-21.9-7.95-21.9-22.05v-1.2c0-14.1 8.1-22.05 21.9-22.05s21.9 7.95 21.9 22.05v1.2c0 14.1-8.1 22.05-21.9 22.05z"/>
      <path id="bz" d="m1035.6 995.79 39.3-93.6v-11.1h-68.7v30.3h11.25v-19.5h44.7l-40.05 93.9h13.5z"/>
      <path id="ca" d="m1166.2 997.59c23.85 0 36.3-13.05 36.3-30.3 0-14.25-8.55-22.5-21.15-25.95v-1.2c10.95-3.75 18-12.6 18-24.6 0-15.9-12.3-26.25-33.15-26.25s-33.15 10.35-33.15 26.25c0 12 7.05 20.85 18 24.6v1.2c-12.6 3.45-21.15 11.7-21.15 25.95 0 17.25 12.45 30.3 36.3 30.3zm0-10.95c-14.55 0-22.95-6.9-22.95-18.75v-3.15c0-11.85 8.4-18.75 22.95-18.75s22.95 6.9 22.95 18.75v3.15c0 11.85-8.4 18.75-22.95 18.75zm0-51.15c-13.05 0-20.1-5.85-20.1-16.5v-2.25c0-10.65 7.05-16.5 20.1-16.5s20.1 5.85 20.1 16.5v2.25c0 10.65-7.05 16.5-20.1 16.5z"/>
      <path id="cb" d="m1326.5 929.49c0-24.9-13.35-40.2-35.1-40.2-21 0-34.8 14.1-34.8 34.65 0 19.8 12.9 32.25 30.9 32.25 12.75 0 20.25-6.45 25.2-15l0.75 0.3c-5.7 24.3-18.15 37.95-40.5 54.3h16.2c16.8-10.95 37.35-35.25 37.35-66.3zm-34.95 16.05c-13.8 0-21.9-7.95-21.9-22.05v-1.2c0-14.1 8.1-22.05 21.9-22.05s21.9 7.95 21.9 22.05v1.2c0 14.1-8.1 22.05-21.9 22.05z"/>
    </g>
  </g>
</svg>
