<?xml version="1.0" encoding="UTF-8" standalone="no"?>
<svg
   version="1.1"
   viewBox="0 0 922 484"
   id="svg18"
   sodipodi:docname="Perplex_social.svg"
   width="922"
   height="484"
   inkscape:version="1.1.2 (0a00cf5339, 2022-02-04)"
   inkscape:export-filename="/home/georg/go/src/www/perplex/themes/perplex/static/logo/Perplex_social.png"
   inkscape:export-xdpi="124.94577"
   inkscape:export-ydpi="124.94577"
   xmlns:inkscape="http://www.inkscape.org/namespaces/inkscape"
   xmlns:sodipodi="http://sodipodi.sourceforge.net/DTD/sodipodi-0.dtd"
   xmlns="http://www.w3.org/2000/svg"
   xmlns:svg="http://www.w3.org/2000/svg">
  <defs
     id="defs22">
    <rect
       x="101.84075"
       y="293.09754"
       width="714.94261"
       height="85.743286"
       id="rect58025" />
    <rect
       x="101.84075"
       y="298.61472"
       width="714.94261"
       height="101.77645"
       id="rect47305" />
    <rect
       x="101.84075"
       y="288.05452"
       width="714.94261"
       height="109.69258"
       id="rect35331" />
    <rect
       x="101.84075"
       y="276.56208"
       width="714.94261"
       height="79.59523"
       id="rect24553" />
  </defs>
  <sodipodi:namedview
     id="namedview20"
     pagecolor="#ffffff"
     bordercolor="#666666"
     borderopacity="1.0"
     inkscape:pageshadow="2"
     inkscape:pageopacity="0.0"
     inkscape:pagecheckerboard="0"
     showgrid="false"
     fit-margin-left="102"
     lock-margins="false"
     showguides="true"
     inkscape:guide-bbox="true"
     inkscape:zoom="0.972106"
     inkscape:cx="479.37159"
     inkscape:cy="-25.71736"
     inkscape:window-width="2560"
     inkscape:window-height="1376"
     inkscape:window-x="0"
     inkscape:window-y="0"
     inkscape:window-maximized="1"
     inkscape:current-layer="g16">
    <sodipodi:guide
       position="101.84075,860.50215"
       orientation="1,0"
       id="guide7629" />
    <sodipodi:guide
       position="816.78336,581.72597"
       orientation="1,0"
       id="guide13857" />
  </sodipodi:namedview>
  <g
     transform="translate(-13.3,-77.7)"
     aria-label="PERPLEX"
     id="g16">
    <path
       d="m 115.36866,310.04868 v -130 h 53.9 q 17.2,0 25.9,10.6 8.96,10.6 8.96,29.3 0,18.7 -8.96,29.3 -8.77,10.6 -25.9,10.6 h -30.6 v 50.4 z m 23.3,-70.7 h 28.2 q 5.97,0 9.33,-3.17 3.55,-3.36 3.55,-10.6 v -11.6 q 0,-7.28 -3.55,-10.5 -3.36,-3.36 -9.33,-3.36 h -28.2 z"
       fill="#c9177e"
       id="path2" />
    <path
       d="m 225.06866,310.04868 v -130 h 78.2 v 20.3 h -54.9 v 34 h 48 v 19.8 h -48 v 35.8 h 54.9 v 20.3 z"
       fill="#8b8b8b"
       id="path4" />
    <path
       d="m 349.06866,310.04868 h -23.3 v -130 h 53.9 q 17.2,0 25.9,10.5 8.96,10.5 8.96,29.1 0,14.7 -5.6,24.5 -5.6,9.52 -16.4,13.1 l 23.7,53.2 h -25.2 l -21.5,-51.3 h -20.5 z m 28.2,-70.7 q 5.97,0 9.33,-3.17 3.55,-3.17 3.55,-10.6 v -11.6 q 0,-7.47 -3.55,-10.6 -3.36,-3.17 -9.33,-3.17 h -28.2 v 39.2 z"
       fill="#0083c0"
       id="path6" />
    <path
       d="m 435.06866,310.04868 v -130 h 53.9 q 17.2,0 25.9,10.6 8.96,10.6 8.96,29.3 0,18.7 -8.96,29.3 -8.77,10.6 -25.9,10.6 h -30.6 v 50.4 z m 23.3,-70.7 h 28.2 q 5.97,0 9.33,-3.17 3.55,-3.36 3.55,-10.6 v -11.6 q 0,-7.28 -3.55,-10.5 -3.36,-3.36 -9.33,-3.36 h -28.2 z"
       fill="#8d8d8d"
       id="path8" />
    <path
       d="m 545.06866,310.04868 v -130 h 23.3 v 110 h 45.7 v 20.3 z"
       fill="#00a88a"
       id="path10" />
    <path
       d="m 635.06866,310.04868 v -130 h 78.2 v 20.3 h -54.9 v 34 h 48 v 19.8 h -48 v 35.8 h 54.9 v 20.3 z"
       fill="#8b8b8b"
       id="path12" />
    <path
       d="m 832.06866,310.04868 h -26.9 l -25.4,-48.7 h -2.43 l -25,48.7 h -25 l 37.1,-66.6 -35.3,-63.7 h 26.7 l 23.1,45.2 h 2.61 l 23.5,-45.2 h 25 l -35.8,63.5 z"
       fill="#ebb923"
       id="path14" />
    <text
       xml:space="preserve"
       transform="translate(13.3,77.7)"
       id="text24551"
       style="fill:black;fill-opacity:1;stroke:none;font-family:'IBM Plex Sans Condensed';font-style:normal;font-weight:500;font-size:32px;line-height:1.25;letter-spacing:0px;word-spacing:0px;-inkscape-font-specification:'IBM Plex Sans Condensed, Medium Condensed';font-stretch:condensed;font-variant:normal;text-align:center;writing-mode:lr;font-variant-ligatures:normal;font-variant-caps:normal;font-variant-numeric:normal;font-feature-settings:normal;white-space:pre;shape-inside:url(#rect24553)" />
    <text
       xml:space="preserve"
       transform="translate(13.3,77.7)"
       id="text35329"
       style="fill:black;fill-opacity:1;stroke:none;font-family:'IBM Plex Sans Condensed';font-style:normal;font-weight:500;font-size:32px;line-height:1.25;letter-spacing:0px;word-spacing:0px;-inkscape-font-specification:'IBM Plex Sans Condensed, Medium Condensed';font-stretch:condensed;font-variant:normal;text-align:center;writing-mode:lr;font-variant-ligatures:normal;font-variant-caps:normal;font-variant-numeric:normal;font-feature-settings:normal;white-space:pre;shape-inside:url(#rect35331)" />
    <text
       xml:space="preserve"
       transform="translate(13.3,77.7)"
       id="text47303"
       style="fill:black;fill-opacity:1;stroke:none;font-family:'IBM Plex Sans Condensed';font-style:normal;font-weight:500;font-size:32px;line-height:1.25;letter-spacing:0px;word-spacing:0px;-inkscape-font-specification:'IBM Plex Sans Condensed, Medium Condensed';font-stretch:condensed;font-variant:normal;text-align:center;writing-mode:lr;font-variant-ligatures:normal;font-variant-caps:normal;font-variant-numeric:normal;font-feature-settings:normal;white-space:pre;shape-inside:url(#rect47305)" />
    <text
       xml:space="preserve"
       transform="translate(13.3,62.857903)"
       id="text58023"
       style="font-style:normal;font-variant:normal;font-weight:500;font-stretch:condensed;font-size:28px;line-height:1.25;font-family:'IBM Plex Sans Condensed';-inkscape-font-specification:'IBM Plex Sans Condensed, Medium Condensed';font-variant-ligatures:normal;font-variant-caps:normal;font-variant-numeric:normal;font-feature-settings:normal;text-align:center;letter-spacing:0px;word-spacing:0px;writing-mode:lr-tb;white-space:pre;shape-inside:url(#rect58025);fill:#000000;fill-opacity:1;stroke:none"><tspan
         x="105.25218"
         y="318.43766"
         id="tspan155725">The fluid responsive Hugo theme to publish technical content</tspan></text>
    <text
       xml:space="preserve"
       style="font-style:normal;font-variant:normal;font-weight:500;font-stretch:normal;font-size:18.6667px;line-height:1.25;font-family:'IBM Plex Sans Condensed';-inkscape-font-specification:'IBM Plex Sans Condensed,  Medium';text-align:center;letter-spacing:0px;word-spacing:0px;writing-mode:lr-tb;text-anchor:middle"
       x="470.75681"
       y="443.74707"
       id="text86183"><tspan
         sodipodi:role="line"
         id="tspan86181"
         x="470.75681"
         y="443.74707"
         style="font-style:normal;font-variant:normal;font-weight:normal;font-stretch:normal;font-family:'IBM Plex Sans';-inkscape-font-specification:'IBM Plex Sans'">Perplex is optimized for legibility on all screens down to a view-port of <tspan
   style="font-style:normal;font-variant:normal;font-weight:normal;font-stretch:normal;font-family:'IBM Plex Mono';-inkscape-font-specification:'IBM Plex Mono'"
   id="tspan138693">360</tspan>px.</tspan><tspan
         sodipodi:role="line"
         x="470.75681"
         y="467.08044"
         style="font-style:normal;font-variant:normal;font-weight:normal;font-stretch:normal;font-family:'IBM Plex Sans';-inkscape-font-specification:'IBM Plex Sans'"
         id="tspan102859">It offers advanced layout capabilities for your Markdown.</tspan></text>
  </g>
</svg>
