<svg id="acessibilidade_onu" version="1.1" viewBox="0 0 1000 931" xmlns="http://www.w3.org/2000/svg">
 <style type="text/css">.c1 {fill: none;}
		.c2 {fill: #53C2EE;}
		.c1,.c2 {stroke: #000;stroke-miterlimit: 10;stroke-width: 32.8947px;}</style>
 <g id="limbs" class="c1" transform="translate(.147 -34.7)">
  <path id="arms" d="m106 409s393 238 787 0"/>
  <line id="right_leg" x1="740" x2="500" y1="877" y2="520"/>
  <line id="left_leg" x1="260" x2="500" y1="877" y2="520"/>
 </g>
 <g id="circles" class="c2" transform="translate(.147 -34.7)">
  <circle id="head" cx="500" cy="284" r="115"/>
  <circle id="right_hand" cx="932" cy="374" r="51.3"/>
  <circle id="left_hand" cx="67.6" cy="374" r="51.3"/>
  <circle id="right_foot" cx="740" cy="877" r="51.3"/>
  <circle id="left_foot" cx="260" cy="877" r="51.3"/>
 </g>
 <g id="arcs" transform="translate(.147 -34.7)">
  <path id="right_arc" d="m808 802c8.2 7.5 15.1 16.3 20.5 26.1 87.3-87 136-205 136-329 0-10.1-0.4-20.1-1-30.1-9.9 3.2-20.3 4.8-30.8 4.8h-1.9c0.5 8.4 0.8 16.8 0.8 25.3 0.2 113-44.1 222-124 302z"/>
  <path id="bottom_arc" d="m499 932c-48.7 0.1-97-8.1-143-24.1-3.5 10.6-8.8 20.5-15.5 29.4 103 37 216 36.8 319-0.7-6.7-8.9-11.8-18.9-15.2-29.5-46.7 16.5-95.8 24.9-145 24.9z"/>
  <path id="left_arc" d="m67 475c-11.1-0.1-22.1-2-32.6-5.6-0.7 10.2-1 20.5-1 30.9-0.4 124 48.7 242 136 329l1.2 1.2c5.2-9.9 11.9-18.9 20-26.5-80-80.7-125-190-124-304 0-8.5 0.2-16.9 0.7-25.3z"/>
  <path id="top_arc" d="m828 171c-182-182-476-182-658 0-31.2 31.1-57.8 66.5-79.1 105 10.8 2.5 21.1 6.8 30.5 12.7 19.5-34.7 43.7-66.5 71.8-94.6 169-169 443-169 612 0 28.5 28.4 52.9 60.7 72.5 95.8 9.2-6.1 19.4-10.6 30.2-13.4-21.3-38.8-48-74.4-79.4-106z"/>
 </g>
</svg>
