<svg version="1.1" viewBox="0 0 110 30.7" xmlns="http://www.w3.org/2000/svg">
  <defs>
    <radialGradient id="A" cx="23" cy="18.5" r="7.66" gradientTransform="matrix(.495 0 0 .495 9.55 18.9)" gradientUnits="userSpaceOnUse">
      <stop stop-color="#797979" offset="0"/>
      <stop stop-color="#4c4c4c" offset="1"/>
    </radialGradient>
  </defs>
  <g transform="translate(-4.31 -14.7)">
    <g transform="matrix(1.42 0 0 1.42 -9.93 -12.7)">
      <circle cx="20.8" cy="30" r="10.7" fill="#f4b960"/>
      <circle cx="19.7" cy="28.9" r="9.7" fill="#e66f32"/>
      <circle cx="21" cy="27.7" r="8.41" fill="#e43c41"/>
      <circle cx="21.7" cy="28.3" r="7.72" fill="#bdd041"/>
      <circle cx="21.1" cy="28.9" r="7.18" fill="#6db54c"/>
      <circle cx="20" cy="27.7" r="5.99" fill="#aedae6"/>
      <circle cx="20.9" cy="26.8" r="5.05" fill="#56b8de"/>
      <circle cx="21.6" cy="27.5" r="4.41" fill="#00b1d5"/>
      <circle cx="20.9" cy="28" r="3.76" fill="url(#A)"/>
      <circle cx="20.9" cy="28" r="3.76" fill="#221f1f"/>
      <ellipse transform="rotate(-65.8)" cx="-15.2" cy="31.4" rx="1.19" ry=".742" fill="#fff"/>
    </g>
    <path d="m39.5 26c0-0.05 0.05-0.148 0.148-0.148h3.42c1.93 0 2.82 0.9 2.82 2.23 0 1-0.495 1.48-1.1 1.78v0.05c0.544 0.198 1.24 0.9 1.24 1.93 0 1.68-1.14 2.47-3.12 2.47h-3.26c-0.05 0-0.148-0.05-0.148-0.148zm3.51 3.36c0.792 0 1.29-0.445 1.29-1.1 0-0.693-0.495-1.14-1.29-1.14h-1.83c-0.05 0-0.05 0.05-0.05 0.05v2.08c0 0.05 0.05 0.05 0.05 0.05-0.05 0.05 1.83 0.05 1.83 0.05zm-1.88 3.56h1.93c0.9 0 1.39-0.445 1.39-1.19s-0.495-1.19-1.39-1.19h-1.93c-0.05 0-0.05 0.05-0.05 0.05v2.18c-0.05 0.148 0.05 0.148 0.05 0.148zm5.99 1.29c-0.05 0-0.148-0.05-0.148-0.148v-5.74c0-0.05 0.05-0.148 0.148-0.148h1.24c0.05 0 0.148 0.05 0.148 0.148v0.495h0.05c0.297-0.445 0.9-0.792 1.68-0.792 0.495 0 1.04 0.198 1.34 0.495 0.05 0.05 0.05 0.148 0.05 0.148l-0.693 0.84c-0.05 0.05-0.148 0.05-0.198 0.05-0.297-0.148-0.594-0.297-1-0.297-0.84 0-1.24 0.544-1.24 1.53v3.22c0 0.05-0.05 0.148-0.148 0.148zm4.7-1.48c-0.148-0.396-0.247-0.792-0.247-1.48s0.05-1.1 0.247-1.48c0.396-1.1 1.34-1.63 2.67-1.63s2.28 0.594 2.67 1.63c0.148 0.396 0.247 0.792 0.247 1.48s-0.05 1.1-0.247 1.48c-0.396 1.1-1.34 1.63-2.67 1.63s-2.33-0.544-2.67-1.63zm3.9-0.346c0.148-0.297 0.148-0.594 0.148-1.1s-0.05-0.792-0.148-1.1c-0.198-0.495-0.594-0.792-1.24-0.792-0.594 0-1.04 0.297-1.24 0.792-0.148 0.346-0.148 0.594-0.148 1.1s0.05 0.792 0.148 1.1c0.198 0.495 0.594 0.792 1.24 0.792a1.29 1.29 0 0 0 1.24-0.792zm8.12 1.83c-0.05 0-0.148-0.05-0.148-0.148l-1.24-3.86h-0.05l-1.24 3.8c-0.05 0.05-0.05 0.148-0.148 0.148h-1.1c-0.05 0-0.148-0.05-0.148-0.148l-2.03-5.74c-0.05-0.05 0.05-0.148 0.1-0.148h1.29c0.1 0 0.148 0.05 0.148 0.148l1.24 3.96h0.05l1.24-3.96c0.05-0.05 0.1-0.148 0.148-0.148h1c0.05 0 0.148 0.05 0.148 0.148l1.29 3.96h0.05l1.19-3.96c0.05-0.1 0.05-0.148 0.148-0.148h1.29c0.05 0 0.148 0.05 0.1 0.148l-1.98 5.74c-0.05 0.05-0.05 0.148-0.148 0.148zm3.56-0.792c-0.05-0.05-0.05-0.148 0-0.148l0.792-0.742a0.15 0.15 0 0 1 0.198 0c0.445 0.396 1.24 0.693 1.93 0.693 0.792 0 1.19-0.297 1.19-0.693 0-0.346-0.247-0.594-1.1-0.643l-0.693-0.05c-1.29-0.148-1.98-0.742-1.98-1.73 0-1.14 0.9-1.93 2.47-1.93 1 0 1.83 0.297 2.42 0.693 0.05 0.05 0.05 0.148 0.05 0.148l-0.643 0.693c-0.05 0.05-0.148 0.05-0.198 0.05-0.396-0.247-1.1-0.495-1.68-0.495-0.643 0-1 0.247-1 0.643 0 0.346 0.247 0.544 1.1 0.643l0.693 0.05c1.34 0.148 1.98 0.792 1.98 1.73 0 1.19-0.94 2.03-2.72 2.03-1.34 0.05-2.28-0.445-2.82-0.94zm6.53-0.693c-0.148-0.396-0.247-0.84-0.247-1.48s0.05-1.1 0.247-1.48c0.396-1.1 1.34-1.63 2.67-1.63s2.28 0.643 2.67 1.63c0.148 0.396 0.247 0.84 0.247 1.83 0 0.05-0.05 0.148-0.148 0.148h-4.06c-0.05 0-0.05 0.05-0.05 0.05 0 0.148 0.05 0.346 0.1 0.445 0.247 0.594 0.693 0.9 1.44 0.9s1.19-0.247 1.53-0.544c0.05-0.05 0.148-0.05 0.247-0.05l0.792 0.643c0.05 0.05 0.05 0.148 0.05 0.148-0.544 0.594-1.48 1.04-2.67 1.04-1.48 0.05-2.47-0.544-2.82-1.63zm3.9-2.67c-0.148-0.495-0.643-0.792-1.24-0.792s-1.1 0.297-1.29 0.792c-0.05 0.148-0.05 0.297-0.05 0.495 0 0.05 0.05 0.05 0.05 0.05h2.57c0.05 0 0.05-0.05 0.05-0.05-0.05-0.148-0.05-0.346-0.1-0.495zm2.67 4.16c-0.05 0-0.148-0.05-0.148-0.148v-5.74c0-0.05 0.05-0.148 0.148-0.148h1.24c0.05 0 0.148 0.05 0.148 0.148v0.495h0.05c0.297-0.445 0.9-0.792 1.68-0.792 0.495 0 1.04 0.198 1.34 0.495 0.05 0.05 0.05 0.148 0.05 0.148l-0.693 0.84c-0.05 0.05-0.148 0.05-0.198 0.05-0.297-0.148-0.594-0.297-1-0.297-0.84 0-1.24 0.544-1.24 1.53v3.22c0 0.05-0.05 0.148-0.148 0.148zm4.7-0.9c-0.05-0.05-0.05-0.148-0.05-0.198l0.84-0.9c0.05-0.05 0.148-0.05 0.198-0.05 0.594 0.445 1.48 0.9 2.47 0.9 1.1 0 1.73-0.495 1.73-1.24 0-0.594-0.396-1-1.63-1.19l-0.495-0.05c-1.73-0.247-2.72-1-2.72-2.38 0-1.53 1.24-2.57 3.07-2.57 1.14 0 2.23 0.346 2.92 0.84 0.05 0.05 0.05 0.1 0.05 0.148l-0.621 0.902c-0.05 0.05-0.148 0.05-0.198 0.05-0.742-0.445-1.44-0.643-2.18-0.643-0.94 0-1.44 0.445-1.44 1.14 0 0.594 0.445 1 1.68 1.14l0.495 0.05c1.73 0.247 2.72 1 2.72 2.47s-1.19 2.62-3.42 2.62c-1.44 0.05-2.72-0.445-3.42-1.04zm9.55 1.04c-1.29 0-1.83-0.594-1.83-1.73v-3.17c0-0.05-0.05-0.05-0.05-0.05h-0.396c-0.05 0-0.148-0.05-0.148-0.148v-0.84c0-0.05 0.05-0.148 0.148-0.148h0.396c0.05 0 0.05-0.05 0.05-0.05v-1.62c0-0.05 0.05-0.148 0.148-0.148h1.24c0.05 0 0.148 0.05 0.148 0.148v1.63c0 0.05 0.05 0.05 0.05 0.05h0.9c0.05 0 0.148 0.05 0.148 0.148v0.84c0 0.05-0.05 0.148-0.148 0.148h-0.9c-0.05 0-0.05 0.05-0.05 0.05v3.12c0 0.396 0.198 0.544 0.594 0.544h0.346c0.05 0 0.148 0.05 0.148 0.148v1c0 0.05-0.05 0.148-0.148 0.148zm5.7-0.148c-0.05 0-0.148-0.05-0.148-0.148v-0.425c-0.297 0.396-0.9 0.693-1.83 0.693-1.19 0-2.18-0.544-2.18-1.83s1-1.93 2.57-1.93h1.29c0.05 0 0.05-0.05 0.05-0.05v-0.297c0-0.693-0.346-1-1.44-1-0.693 0-1.19 0.198-1.48 0.396-0.05 0.05-0.148 0.05-0.198-0.05l-0.495-0.792c-0.05-0.05-0.05-0.148 0.05-0.148 0.495-0.346 1.24-0.594 2.28-0.594 1.98 0 2.67 0.643 2.67 2.08v3.86c0 0.05-0.05 0.148-0.148 0.148zm-0.148-1.98v-0.445c0-0.05-0.05-0.05-0.05-0.05h-1.1c-1 0-1.39 0.247-1.39 0.792 0 0.495 0.396 0.742 1.14 0.742 0.84-0.05 1.39-0.346 1.39-1.04zm2.57 0.495c-0.148-0.396-0.247-0.84-0.247-1.48s0.05-1.1 0.247-1.48c0.396-1.1 1.39-1.63 2.67-1.63 1 0 1.73 0.346 2.23 0.94 0.05 0.05 0.05 0.148-0.05 0.148l-0.84 0.693c-0.05 0.05-0.148 0.05-0.198-0.05-0.346-0.346-0.643-0.495-1.19-0.495-0.594 0-1.04 0.247-1.24 0.792-0.148 0.297-0.148 0.643-0.148 1.1a3.99 3.99 0 0 0 0.148 1.14c0.198 0.495 0.643 0.792 1.24 0.792a1.56 1.56 0 0 0 1.19-0.495c0.05-0.05 0.148-0.05 0.198-0.05l0.84 0.693c0.05 0.05 0.05 0.148 0.05 0.148a2.97 2.97 0 0 1-2.23 0.891c-1.29 0.05-2.28-0.544-2.67-1.63zm10.1 1.48c-0.1 0-0.148-0.05-0.247-0.148l-1.63-2.47-0.9 0.94v1.53c0 0.05-0.05 0.148-0.148 0.148h-1.24c-0.05 0-0.148-0.05-0.148-0.148v-8.16c0-0.05 0.05-0.148 0.148-0.148h1.24c0.05 0 0.148 0.05 0.148 0.148v4.85l2.23-2.38a0.27 0.27 0 0 1 0.247-0.148h1.39c0.05 0 0.148 0.05 0.05 0.148l-2.08 2.18 2.33 3.56c0.05 0.05 0.05 0.148-0.05 0.148z" fill="#202020"/>
  </g>
</svg>
