<svg width="182" height="69" viewBox="0 0 182 69" fill="none" xmlns="http://www.w3.org/2000/svg">
<path d="M8.27539 65L7.09766 61.2324C7.02344 61.002 6.88477 60.4785 6.68164 59.6621H6.63477C6.47852 60.3457 6.3418 60.873 6.22461 61.2441L5.01172 65H3.88672L2.13477 58.5781H3.1543C3.56836 60.1914 3.88281 61.4199 4.09766 62.2637C4.31641 63.1074 4.44141 63.6758 4.47266 63.9688H4.51953C4.5625 63.7461 4.63086 63.459 4.72461 63.1074C4.82227 62.752 4.90625 62.4707 4.97656 62.2637L6.1543 58.5781H7.20898L8.35742 62.2637C8.57617 62.9355 8.72461 63.5 8.80273 63.957H8.84961C8.86523 63.8164 8.90625 63.5996 8.97266 63.3066C9.04297 63.0137 9.45117 61.4375 10.1973 58.5781H11.2051L9.42969 65H8.27539ZM15.084 65.1172C14.1348 65.1172 13.3848 64.8281 12.834 64.25C12.2871 63.6719 12.0137 62.8691 12.0137 61.8418C12.0137 60.8066 12.2676 59.9844 12.7754 59.375C13.2871 58.7656 13.9727 58.4609 14.832 58.4609C15.6367 58.4609 16.2734 58.7266 16.7422 59.2578C17.2109 59.7852 17.4453 60.4824 17.4453 61.3496V61.9648H13.0215C13.041 62.7187 13.2305 63.291 13.5898 63.6816C13.9531 64.0723 14.4629 64.2676 15.1191 64.2676C15.8105 64.2676 16.4941 64.123 17.1699 63.834V64.7012C16.8262 64.8496 16.5 64.9551 16.1914 65.0176C15.8867 65.084 15.5176 65.1172 15.084 65.1172ZM14.8203 59.2754C14.3047 59.2754 13.8926 59.4434 13.584 59.7793C13.2793 60.1152 13.0996 60.5801 13.0449 61.1738H16.4023C16.4023 60.5605 16.2656 60.0918 15.9922 59.7676C15.7187 59.4395 15.3281 59.2754 14.8203 59.2754ZM22.0977 58.4727C22.9414 58.4727 23.5957 58.7617 24.0605 59.3398C24.5293 59.9141 24.7637 60.7285 24.7637 61.7832C24.7637 62.8379 24.5273 63.6582 24.0547 64.2441C23.5859 64.8262 22.9336 65.1172 22.0977 65.1172C21.6797 65.1172 21.2969 65.041 20.9492 64.8887C20.6055 64.7324 20.3164 64.4941 20.082 64.1738H20.0117L19.8066 65H19.1094V55.8828H20.082V58.0977C20.082 58.5937 20.0664 59.0391 20.0352 59.4336H20.082C20.5352 58.793 21.207 58.4727 22.0977 58.4727ZM21.957 59.2871C21.293 59.2871 20.8145 59.4785 20.5215 59.8613C20.2285 60.2402 20.082 60.8809 20.082 61.7832C20.082 62.6855 20.2324 63.332 20.5332 63.7227C20.834 64.1094 21.3164 64.3027 21.9805 64.3027C22.5781 64.3027 23.0234 64.0859 23.3164 63.6523C23.6094 63.2148 23.7559 62.5879 23.7559 61.7715C23.7559 60.9355 23.6094 60.3125 23.3164 59.9023C23.0234 59.4922 22.5703 59.2871 21.957 59.2871ZM33.5352 65L33.3418 64.0859H33.2949C32.9746 64.4883 32.6543 64.7617 32.334 64.9062C32.0176 65.0469 31.6211 65.1172 31.1445 65.1172C30.5078 65.1172 30.0078 64.9531 29.6445 64.625C29.2852 64.2969 29.1055 63.8301 29.1055 63.2246C29.1055 61.9277 30.1426 61.248 32.2168 61.1855L33.3066 61.1504V60.752C33.3066 60.248 33.1973 59.877 32.9785 59.6387C32.7637 59.3965 32.418 59.2754 31.9414 59.2754C31.4062 59.2754 30.8008 59.4395 30.125 59.7676L29.8262 59.0234C30.1426 58.8516 30.4883 58.7168 30.8633 58.6191C31.2422 58.5215 31.6211 58.4727 32 58.4727C32.7656 58.4727 33.332 58.6426 33.6992 58.9824C34.0703 59.3223 34.2559 59.8672 34.2559 60.6172V65H33.5352ZM31.3379 64.3145C31.9434 64.3145 32.418 64.1484 32.7617 63.8164C33.1094 63.4844 33.2832 63.0195 33.2832 62.4219V61.8418L32.3105 61.8828C31.5371 61.9102 30.9785 62.0313 30.6348 62.2461C30.2949 62.457 30.125 62.7871 30.125 63.2363C30.125 63.5879 30.2305 63.8555 30.4414 64.0391C30.6562 64.2227 30.9551 64.3145 31.3379 64.3145ZM38.832 65.1172C37.9023 65.1172 37.1816 64.832 36.6699 64.2617C36.1621 63.6875 35.9082 62.877 35.9082 61.8301C35.9082 60.7559 36.166 59.9258 36.6816 59.3398C37.2012 58.7539 37.9395 58.4609 38.8965 58.4609C39.2051 58.4609 39.5137 58.4941 39.8223 58.5605C40.1309 58.627 40.373 58.7051 40.5488 58.7949L40.25 59.6211C40.0352 59.5352 39.8008 59.4648 39.5469 59.4102C39.293 59.3516 39.0684 59.3223 38.873 59.3223C37.5684 59.3223 36.916 60.1543 36.916 61.8184C36.916 62.6074 37.0742 63.2129 37.3906 63.6348C37.7109 64.0566 38.1836 64.2676 38.8086 64.2676C39.3437 64.2676 39.8926 64.1523 40.4551 63.9219V64.7832C40.0254 65.0059 39.4844 65.1172 38.832 65.1172ZM44.5508 65.1172C43.6211 65.1172 42.9004 64.832 42.3887 64.2617C41.8809 63.6875 41.627 62.877 41.627 61.8301C41.627 60.7559 41.8848 59.9258 42.4004 59.3398C42.9199 58.7539 43.6582 58.4609 44.6152 58.4609C44.9238 58.4609 45.2324 58.4941 45.541 58.5605C45.8496 58.627 46.0918 58.7051 46.2676 58.7949L45.9688 59.6211C45.7539 59.5352 45.5195 59.4648 45.2656 59.4102C45.0117 59.3516 44.7871 59.3223 44.5918 59.3223C43.2871 59.3223 42.6348 60.1543 42.6348 61.8184C42.6348 62.6074 42.793 63.2129 43.1094 63.6348C43.4297 64.0566 43.9023 64.2676 44.5273 64.2676C45.0625 64.2676 45.6113 64.1523 46.1738 63.9219V64.7832C45.7441 65.0059 45.2031 65.1172 44.5508 65.1172ZM50.416 65.1172C49.4668 65.1172 48.7168 64.8281 48.166 64.25C47.6191 63.6719 47.3457 62.8691 47.3457 61.8418C47.3457 60.8066 47.5996 59.9844 48.1074 59.375C48.6191 58.7656 49.3047 58.4609 50.1641 58.4609C50.9687 58.4609 51.6055 58.7266 52.0742 59.2578C52.543 59.7852 52.7773 60.4824 52.7773 61.3496V61.9648H48.3535C48.373 62.7187 48.5625 63.291 48.9219 63.6816C49.2852 64.0723 49.7949 64.2676 50.4512 64.2676C51.1426 64.2676 51.8262 64.123 52.502 63.834V64.7012C52.1582 64.8496 51.832 64.9551 51.5234 65.0176C51.2188 65.084 50.8496 65.1172 50.416 65.1172ZM50.1523 59.2754C49.6367 59.2754 49.2246 59.4434 48.916 59.7793C48.6113 60.1152 48.4316 60.5801 48.377 61.1738H51.7344C51.7344 60.5605 51.5977 60.0918 51.3242 59.7676C51.0508 59.4395 50.6602 59.2754 50.1523 59.2754ZM58.584 63.248C58.584 63.8457 58.3613 64.3066 57.916 64.6309C57.4707 64.9551 56.8457 65.1172 56.041 65.1172C55.1895 65.1172 54.5254 64.9824 54.0488 64.7129V63.8105C54.3574 63.9668 54.6875 64.0898 55.0391 64.1797C55.3945 64.2695 55.7363 64.3145 56.0645 64.3145C56.5723 64.3145 56.9629 64.2344 57.2363 64.0742C57.5098 63.9102 57.6465 63.6621 57.6465 63.3301C57.6465 63.0801 57.5371 62.8672 57.3184 62.6914C57.1035 62.5117 56.6816 62.3008 56.0527 62.0586C55.4551 61.8359 55.0293 61.6426 54.7754 61.4785C54.5254 61.3105 54.3379 61.1211 54.2129 60.9102C54.0918 60.6992 54.0312 60.4473 54.0312 60.1543C54.0312 59.6309 54.2441 59.2187 54.6699 58.918C55.0957 58.6133 55.6797 58.4609 56.4219 58.4609C57.1133 58.4609 57.7891 58.6016 58.4492 58.8828L58.1035 59.6738C57.459 59.4082 56.875 59.2754 56.3516 59.2754C55.8906 59.2754 55.543 59.3477 55.3086 59.4922C55.0742 59.6367 54.957 59.8359 54.957 60.0898C54.957 60.2617 55 60.4082 55.0859 60.5293C55.1758 60.6504 55.3184 60.7656 55.5137 60.875C55.709 60.9844 56.084 61.1426 56.6387 61.3496C57.4004 61.627 57.9141 61.9062 58.1797 62.1875C58.4492 62.4688 58.584 62.8223 58.584 63.248ZM64.3145 63.248C64.3145 63.8457 64.0918 64.3066 63.6465 64.6309C63.2012 64.9551 62.5762 65.1172 61.7715 65.1172C60.9199 65.1172 60.2559 64.9824 59.7793 64.7129V63.8105C60.0879 63.9668 60.418 64.0898 60.7695 64.1797C61.125 64.2695 61.4668 64.3145 61.7949 64.3145C62.3027 64.3145 62.6934 64.2344 62.9668 64.0742C63.2402 63.9102 63.377 63.6621 63.377 63.3301C63.377 63.0801 63.2676 62.8672 63.0488 62.6914C62.834 62.5117 62.4121 62.3008 61.7832 62.0586C61.1855 61.8359 60.7598 61.6426 60.5059 61.4785C60.2559 61.3105 60.0684 61.1211 59.9434 60.9102C59.8223 60.6992 59.7617 60.4473 59.7617 60.1543C59.7617 59.6309 59.9746 59.2187 60.4004 58.918C60.8262 58.6133 61.4102 58.4609 62.1523 58.4609C62.8438 58.4609 63.5195 58.6016 64.1797 58.8828L63.834 59.6738C63.1895 59.4082 62.6055 59.2754 62.082 59.2754C61.6211 59.2754 61.2734 59.3477 61.0391 59.4922C60.8047 59.6367 60.6875 59.8359 60.6875 60.0898C60.6875 60.2617 60.7305 60.4082 60.8164 60.5293C60.9063 60.6504 61.0488 60.7656 61.2441 60.875C61.4395 60.9844 61.8145 61.1426 62.3691 61.3496C63.1309 61.627 63.6445 61.9062 63.9102 62.1875C64.1797 62.4688 64.3145 62.8223 64.3145 63.248ZM66.875 65H65.9023V58.5781H66.875V65ZM65.8203 56.8379C65.8203 56.6152 65.875 56.4531 65.9844 56.3516C66.0938 56.2461 66.2305 56.1934 66.3945 56.1934C66.5508 56.1934 66.6855 56.2461 66.7988 56.3516C66.9121 56.457 66.9688 56.6191 66.9688 56.8379C66.9688 57.0566 66.9121 57.2207 66.7988 57.3301C66.6855 57.4355 66.5508 57.4883 66.3945 57.4883C66.2305 57.4883 66.0938 57.4355 65.9844 57.3301C65.875 57.2207 65.8203 57.0566 65.8203 56.8379ZM71.9258 58.4727C72.7695 58.4727 73.4238 58.7617 73.8887 59.3398C74.3574 59.9141 74.5918 60.7285 74.5918 61.7832C74.5918 62.8379 74.3555 63.6582 73.8828 64.2441C73.4141 64.8262 72.7617 65.1172 71.9258 65.1172C71.5078 65.1172 71.125 65.041 70.7773 64.8887C70.4336 64.7324 70.1445 64.4941 69.9102 64.1738H69.8398L69.6348 65H68.9375V55.8828H69.9102V58.0977C69.9102 58.5937 69.8945 59.0391 69.8633 59.4336H69.9102C70.3633 58.793 71.0352 58.4727 71.9258 58.4727ZM71.7852 59.2871C71.1211 59.2871 70.6426 59.4785 70.3496 59.8613C70.0566 60.2402 69.9102 60.8809 69.9102 61.7832C69.9102 62.6855 70.0605 63.332 70.3613 63.7227C70.6621 64.1094 71.1445 64.3027 71.8086 64.3027C72.4062 64.3027 72.8516 64.0859 73.1445 63.6523C73.4375 63.2148 73.584 62.5879 73.584 61.7715C73.584 60.9355 73.4375 60.3125 73.1445 59.9023C72.8516 59.4922 72.3984 59.2871 71.7852 59.2871ZM77.2695 65H76.2969V58.5781H77.2695V65ZM76.2148 56.8379C76.2148 56.6152 76.2695 56.4531 76.3789 56.3516C76.4883 56.2461 76.625 56.1934 76.7891 56.1934C76.9453 56.1934 77.0801 56.2461 77.1934 56.3516C77.3066 56.457 77.3633 56.6191 77.3633 56.8379C77.3633 57.0566 77.3066 57.2207 77.1934 57.3301C77.0801 57.4355 76.9453 57.4883 76.7891 57.4883C76.625 57.4883 76.4883 57.4355 76.3789 57.3301C76.2695 57.2207 76.2148 57.0566 76.2148 56.8379ZM80.3047 65H79.332V55.8828H80.3047V65ZM83.3398 65H82.3672V58.5781H83.3398V65ZM82.2852 56.8379C82.2852 56.6152 82.3398 56.4531 82.4492 56.3516C82.5586 56.2461 82.6953 56.1934 82.8594 56.1934C83.0156 56.1934 83.1504 56.2461 83.2637 56.3516C83.377 56.457 83.4336 56.6191 83.4336 56.8379C83.4336 57.0566 83.377 57.2207 83.2637 57.3301C83.1504 57.4355 83.0156 57.4883 82.8594 57.4883C82.6953 57.4883 82.5586 57.4355 82.4492 57.3301C82.3398 57.2207 82.2852 57.0566 82.2852 56.8379ZM87.4766 64.3145C87.6484 64.3145 87.8145 64.3027 87.9746 64.2793C88.1348 64.252 88.2617 64.2246 88.3555 64.1973V64.9414C88.25 64.9922 88.0937 65.0332 87.8867 65.0645C87.6836 65.0996 87.5 65.1172 87.3359 65.1172C86.0938 65.1172 85.4727 64.4629 85.4727 63.1543V59.334H84.5527V58.8652L85.4727 58.4609L85.8828 57.0898H86.4453V58.5781H88.3086V59.334H86.4453V63.1133C86.4453 63.5 86.5371 63.7969 86.7207 64.0039C86.9043 64.2109 87.1563 64.3145 87.4766 64.3145ZM88.625 58.5781H89.668L91.0742 62.2402C91.3828 63.0762 91.5742 63.6797 91.6484 64.0508H91.6953C91.7461 63.8516 91.8516 63.5117 92.0117 63.0312C92.1758 62.5469 92.707 61.0625 93.6055 58.5781H94.6484L91.8887 65.8906C91.6152 66.6133 91.2949 67.125 90.9277 67.4258C90.5645 67.7305 90.1172 67.8828 89.5859 67.8828C89.2891 67.8828 88.9961 67.8496 88.707 67.7832V67.0039C88.9219 67.0508 89.1621 67.0742 89.4277 67.0742C90.0957 67.0742 90.5723 66.6992 90.8574 65.9492L91.2148 65.0352L88.625 58.5781ZM101.521 65.1172C100.572 65.1172 99.8223 64.8281 99.2715 64.25C98.7246 63.6719 98.4512 62.8691 98.4512 61.8418C98.4512 60.8066 98.7051 59.9844 99.2129 59.375C99.7246 58.7656 100.41 58.4609 101.27 58.4609C102.074 58.4609 102.711 58.7266 103.18 59.2578C103.648 59.7852 103.883 60.4824 103.883 61.3496V61.9648H99.459C99.4785 62.7187 99.668 63.291 100.027 63.6816C100.391 64.0723 100.9 64.2676 101.557 64.2676C102.248 64.2676 102.932 64.123 103.607 63.834V64.7012C103.264 64.8496 102.938 64.9551 102.629 65.0176C102.324 65.084 101.955 65.1172 101.521 65.1172ZM101.258 59.2754C100.742 59.2754 100.33 59.4434 100.021 59.7793C99.7168 60.1152 99.5371 60.5801 99.4824 61.1738H102.84C102.84 60.5605 102.703 60.0918 102.43 59.7676C102.156 59.4395 101.766 59.2754 101.258 59.2754ZM106.953 65L104.516 58.5781H105.559L106.941 62.3867C107.254 63.2773 107.437 63.8555 107.492 64.1211H107.539C107.582 63.9141 107.717 63.4863 107.943 62.8379C108.174 62.1855 108.688 60.7656 109.484 58.5781H110.527L108.09 65H106.953ZM115.508 65L115.314 64.0859H115.268C114.947 64.4883 114.627 64.7617 114.307 64.9062C113.99 65.0469 113.594 65.1172 113.117 65.1172C112.48 65.1172 111.98 64.9531 111.617 64.625C111.258 64.2969 111.078 63.8301 111.078 63.2246C111.078 61.9277 112.115 61.248 114.189 61.1855L115.279 61.1504V60.752C115.279 60.248 115.17 59.877 114.951 59.6387C114.736 59.3965 114.391 59.2754 113.914 59.2754C113.379 59.2754 112.773 59.4395 112.098 59.7676L111.799 59.0234C112.115 58.8516 112.461 58.7168 112.836 58.6191C113.215 58.5215 113.594 58.4727 113.973 58.4727C114.738 58.4727 115.305 58.6426 115.672 58.9824C116.043 59.3223 116.229 59.8672 116.229 60.6172V65H115.508ZM113.311 64.3145C113.916 64.3145 114.391 64.1484 114.734 63.8164C115.082 63.4844 115.256 63.0195 115.256 62.4219V61.8418L114.283 61.8828C113.51 61.9102 112.951 62.0313 112.607 62.2461C112.268 62.457 112.098 62.7871 112.098 63.2363C112.098 63.5879 112.203 63.8555 112.414 64.0391C112.629 64.2227 112.928 64.3145 113.311 64.3145ZM119.211 65H118.238V55.8828H119.211V65ZM122.188 58.5781V62.7441C122.188 63.2676 122.307 63.6582 122.545 63.916C122.783 64.1738 123.156 64.3027 123.664 64.3027C124.336 64.3027 124.826 64.1191 125.135 63.752C125.447 63.3848 125.604 62.7852 125.604 61.9531V58.5781H126.576V65H125.773L125.633 64.1387H125.58C125.381 64.4551 125.104 64.6973 124.748 64.8652C124.396 65.0332 123.994 65.1172 123.541 65.1172C122.76 65.1172 122.174 64.9316 121.783 64.5605C121.396 64.1895 121.203 63.5957 121.203 62.7793V58.5781H122.188ZM132.594 65L132.4 64.0859H132.354C132.033 64.4883 131.713 64.7617 131.393 64.9062C131.076 65.0469 130.68 65.1172 130.203 65.1172C129.566 65.1172 129.066 64.9531 128.703 64.625C128.344 64.2969 128.164 63.8301 128.164 63.2246C128.164 61.9277 129.201 61.248 131.275 61.1855L132.365 61.1504V60.752C132.365 60.248 132.256 59.877 132.037 59.6387C131.822 59.3965 131.477 59.2754 131 59.2754C130.465 59.2754 129.859 59.4395 129.184 59.7676L128.885 59.0234C129.201 58.8516 129.547 58.7168 129.922 58.6191C130.301 58.5215 130.68 58.4727 131.059 58.4727C131.824 58.4727 132.391 58.6426 132.758 58.9824C133.129 59.3223 133.314 59.8672 133.314 60.6172V65H132.594ZM130.396 64.3145C131.002 64.3145 131.477 64.1484 131.82 63.8164C132.168 63.4844 132.342 63.0195 132.342 62.4219V61.8418L131.369 61.8828C130.596 61.9102 130.037 62.0313 129.693 62.2461C129.354 62.457 129.184 62.7871 129.184 63.2363C129.184 63.5879 129.289 63.8555 129.5 64.0391C129.715 64.2227 130.014 64.3145 130.396 64.3145ZM137.398 64.3145C137.57 64.3145 137.736 64.3027 137.896 64.2793C138.057 64.252 138.184 64.2246 138.277 64.1973V64.9414C138.172 64.9922 138.016 65.0332 137.809 65.0645C137.605 65.0996 137.422 65.1172 137.258 65.1172C136.016 65.1172 135.395 64.4629 135.395 63.1543V59.334H134.475V58.8652L135.395 58.4609L135.805 57.0898H136.367V58.5781H138.23V59.334H136.367V63.1133C136.367 63.5 136.459 63.7969 136.643 64.0039C136.826 64.2109 137.078 64.3145 137.398 64.3145ZM140.539 65H139.566V58.5781H140.539V65ZM139.484 56.8379C139.484 56.6152 139.539 56.4531 139.648 56.3516C139.758 56.2461 139.895 56.1934 140.059 56.1934C140.215 56.1934 140.35 56.2461 140.463 56.3516C140.576 56.457 140.633 56.6191 140.633 56.8379C140.633 57.0566 140.576 57.2207 140.463 57.3301C140.35 57.4355 140.215 57.4883 140.059 57.4883C139.895 57.4883 139.758 57.4355 139.648 57.3301C139.539 57.2207 139.484 57.0566 139.484 56.8379ZM148.145 61.7832C148.145 62.8301 147.881 63.6484 147.354 64.2383C146.826 64.8242 146.098 65.1172 145.168 65.1172C144.594 65.1172 144.084 64.9824 143.639 64.7129C143.193 64.4434 142.85 64.0566 142.607 63.5527C142.365 63.0488 142.244 62.459 142.244 61.7832C142.244 60.7363 142.506 59.9219 143.029 59.3398C143.553 58.7539 144.279 58.4609 145.209 58.4609C146.107 58.4609 146.82 58.7598 147.348 59.3574C147.879 59.9551 148.145 60.7637 148.145 61.7832ZM143.252 61.7832C143.252 62.6035 143.416 63.2285 143.744 63.6582C144.072 64.0879 144.555 64.3027 145.191 64.3027C145.828 64.3027 146.311 64.0898 146.639 63.6641C146.971 63.2344 147.137 62.6074 147.137 61.7832C147.137 60.9668 146.971 60.3477 146.639 59.9258C146.311 59.5 145.824 59.2871 145.18 59.2871C144.543 59.2871 144.063 59.4961 143.738 59.9141C143.414 60.332 143.252 60.9551 143.252 61.7832ZM154.25 65V60.8457C154.25 60.3223 154.131 59.9316 153.893 59.6738C153.654 59.416 153.281 59.2871 152.773 59.2871C152.102 59.2871 151.609 59.4688 151.297 59.832C150.984 60.1953 150.828 60.7949 150.828 61.6309V65H149.855V58.5781H150.646L150.805 59.457H150.852C151.051 59.1406 151.33 58.8965 151.689 58.7246C152.049 58.5488 152.449 58.4609 152.891 58.4609C153.664 58.4609 154.246 58.6484 154.637 59.0234C155.027 59.3945 155.223 59.9902 155.223 60.8105V65H154.25ZM162.418 64.3145C162.59 64.3145 162.756 64.3027 162.916 64.2793C163.076 64.252 163.203 64.2246 163.297 64.1973V64.9414C163.191 64.9922 163.035 65.0332 162.828 65.0645C162.625 65.0996 162.441 65.1172 162.277 65.1172C161.035 65.1172 160.414 64.4629 160.414 63.1543V59.334H159.494V58.8652L160.414 58.4609L160.824 57.0898H161.387V58.5781H163.25V59.334H161.387V63.1133C161.387 63.5 161.479 63.7969 161.662 64.0039C161.846 64.2109 162.098 64.3145 162.418 64.3145ZM170.129 61.7832C170.129 62.8301 169.865 63.6484 169.338 64.2383C168.811 64.8242 168.082 65.1172 167.152 65.1172C166.578 65.1172 166.068 64.9824 165.623 64.7129C165.178 64.4434 164.834 64.0566 164.592 63.5527C164.35 63.0488 164.229 62.459 164.229 61.7832C164.229 60.7363 164.49 59.9219 165.014 59.3398C165.537 58.7539 166.264 58.4609 167.193 58.4609C168.092 58.4609 168.805 58.7598 169.332 59.3574C169.863 59.9551 170.129 60.7637 170.129 61.7832ZM165.236 61.7832C165.236 62.6035 165.4 63.2285 165.729 63.6582C166.057 64.0879 166.539 64.3027 167.176 64.3027C167.813 64.3027 168.295 64.0898 168.623 63.6641C168.955 63.2344 169.121 62.6074 169.121 61.7832C169.121 60.9668 168.955 60.3477 168.623 59.9258C168.295 59.5 167.809 59.2871 167.164 59.2871C166.527 59.2871 166.047 59.4961 165.723 59.9141C165.398 60.332 165.236 60.9551 165.236 61.7832ZM177.383 61.7832C177.383 62.8301 177.119 63.6484 176.592 64.2383C176.064 64.8242 175.336 65.1172 174.406 65.1172C173.832 65.1172 173.322 64.9824 172.877 64.7129C172.432 64.4434 172.088 64.0566 171.846 63.5527C171.604 63.0488 171.482 62.459 171.482 61.7832C171.482 60.7363 171.744 59.9219 172.268 59.3398C172.791 58.7539 173.518 58.4609 174.447 58.4609C175.346 58.4609 176.059 58.7598 176.586 59.3574C177.117 59.9551 177.383 60.7637 177.383 61.7832ZM172.49 61.7832C172.49 62.6035 172.654 63.2285 172.982 63.6582C173.311 64.0879 173.793 64.3027 174.43 64.3027C175.066 64.3027 175.549 64.0898 175.877 63.6641C176.209 63.2344 176.375 62.6074 176.375 61.7832C176.375 60.9668 176.209 60.3477 175.877 59.9258C175.549 59.5 175.062 59.2871 174.418 59.2871C173.781 59.2871 173.301 59.4961 172.977 59.9141C172.652 60.332 172.49 60.9551 172.49 61.7832ZM180.066 65H179.094V55.8828H180.066V65Z" fill="#4A4A4A"/>
<path d="M79.7969 43H78.1562L71.8867 20.9688C71.3659 19.1589 70.9753 17.6745 70.7148 16.5156C70.5065 17.6484 70.207 18.9505 69.8164 20.4219C69.4388 21.8932 67.3424 29.4193 63.5273 43H61.8477L53.9961 14.4453H56.0859L61.0859 32.8438C61.2812 33.5859 61.4635 34.276 61.6328 34.9141C61.8021 35.5391 61.9518 36.1315 62.082 36.6914C62.2253 37.2383 62.349 37.7721 62.4531 38.293C62.5703 38.8008 62.6745 39.3151 62.7656 39.8359C63.0781 38.0651 63.7422 35.3763 64.7578 31.7695L69.6406 14.4453H71.8477L77.5703 34.3281C78.2344 36.6198 78.7096 38.4688 78.9961 39.875C79.1654 38.9375 79.3802 37.9414 79.6406 36.8867C79.9141 35.832 81.9258 28.3516 85.6758 14.4453H87.6875L79.7969 43ZM106.496 32.9219H94.8945L90.9102 43H88.7031L100.188 14.3281H101.457L112.707 43H110.461L106.496 32.9219ZM95.6172 31.125H105.832L101.945 20.832C101.62 20.0247 101.229 18.9049 100.773 17.4727C100.422 18.7227 100.038 19.8555 99.6211 20.8711L95.6172 31.125ZM133.645 14.4453H135.812L125.129 43H123.371L112.727 14.4453H114.855L122.043 33.8789C123.137 36.8086 123.872 39.0091 124.25 40.4805C124.51 39.5039 125.025 37.987 125.793 35.9297L133.645 14.4453ZM155.461 43H139.855V14.4453H155.461V16.2812H141.848V27.082H154.699V28.918H141.848V41.1641H155.461V43Z" fill="#4A4A4A"/>
<mask id="mask0" mask-type="alpha" maskUnits="userSpaceOnUse" x="0" y="5" width="44" height="44">
<circle cx="22" cy="27" r="22" fill="#4877B5"/>
</mask>
<g mask="url(#mask0)">
<circle cx="22" cy="27" r="22" fill="#4877B5"/>
<path d="M0 17C6.07513 17 4.92487 37 11 37C17.0751 37 15.9249 17 22 17C28.0751 17 26.9249 37 33 37C39.0751 37 37.9249 17 44 17" stroke="white" stroke-width="4"/>
</g>
</svg>
