<?xml version="1.0" encoding="UTF-8" standalone="no"?>
<!-- Created with Inkscape (http://www.inkscape.org/) -->

<svg
   xmlns:dc="http://purl.org/dc/elements/1.1/"
   xmlns:cc="http://creativecommons.org/ns#"
   xmlns:rdf="http://www.w3.org/1999/02/22-rdf-syntax-ns#"
   xmlns:svg="http://www.w3.org/2000/svg"
   xmlns="http://www.w3.org/2000/svg"
   xmlns:sodipodi="http://sodipodi.sourceforge.net/DTD/sodipodi-0.dtd"
   xmlns:inkscape="http://www.inkscape.org/namespaces/inkscape"
   width="396mm"
   height="468mm"
   viewBox="0 0 1403.1496 1658.2677"
   id="svg2"
   version="1.1"
   inkscape:version="0.91 r13725"
   sodipodi:docname="IBM Plex sample (final).svg">
  <defs
     id="defs4" />
  <sodipodi:namedview
     id="base"
     pagecolor="#ffffff"
     bordercolor="#666666"
     borderopacity="1.0"
     inkscape:pageopacity="0.0"
     inkscape:pageshadow="2"
     inkscape:zoom="0.24748737"
     inkscape:cx="-391.56632"
     inkscape:cy="859.9328"
     inkscape:document-units="px"
     inkscape:current-layer="layer1"
     showgrid="false"
     inkscape:window-width="1366"
     inkscape:window-height="709"
     inkscape:window-x="0"
     inkscape:window-y="0"
     inkscape:window-maximized="1"
     inkscape:showpageshadow="false" />
  <metadata
     id="metadata7">
    <rdf:RDF>
      <cc:Work
         rdf:about="">
        <dc:format>image/svg+xml</dc:format>
        <dc:type
           rdf:resource="http://purl.org/dc/dcmitype/StillImage" />
        <dc:title></dc:title>
      </cc:Work>
    </rdf:RDF>
  </metadata>
  <g
     inkscape:label="Layer 1"
     inkscape:groupmode="layer"
     id="layer1"
     transform="translate(0,605.90551)">
    <g
       style="font-style:normal;font-weight:normal;font-size:180px;line-height:125%;font-family:sans-serif;text-align:center;letter-spacing:0px;word-spacing:0px;text-anchor:middle;fill:#214152;fill-opacity:1;stroke:none;stroke-width:1px;stroke-linecap:butt;stroke-linejoin:miter;stroke-opacity:1"
       id="text3336">
      <path
         d="m 125.33672,-422.46051 0,-12.6 -17.64,0 0,-100.44 17.64,0 0,-12.6 -50.400001,0 0,12.6 17.64,0 0,100.44 -17.64,0 0,12.6 50.400001,0 z"
         style="font-style:normal;font-variant:normal;font-weight:normal;font-stretch:normal;font-family:'IBM Plex Sans';-inkscape-font-specification:'IBM Plex Sans'"
         id="path4856" />
      <path
         d="m 152.94703,-422.46051 57.06,0 c 18.54,0 32.4,-15.66 32.4,-36.36 0,-20.88 -15.66,-28.62 -24.66,-29.16 l 0,-1.08 c 8.28,-1.26 20.34,-7.92 20.34,-26.64 0,-19.62 -12.78,-32.4 -33.48,-32.4 l -51.66,0 0,125.64 z m 15.12,-58.32 37.26,0 c 12.96,0 20.88,6.84 20.88,19.44 l 0,6.12 c 0,12.6 -7.92,19.44 -20.88,19.44 l -37.26,0 0,-45 z m 0,-54 34.74,0 c 11.88,0 19.08,6.3 19.08,17.46 l 0,6.12 c 0,11.16 -7.2,17.46 -19.08,17.46 l -34.74,0 0,-41.04 z"
         style="font-style:normal;font-variant:normal;font-weight:normal;font-stretch:normal;font-family:'IBM Plex Sans';-inkscape-font-specification:'IBM Plex Sans'"
         id="path4858" />
      <path
         d="m 368.10891,-422.46051 14.76,0 0,-125.64 -19.8,0 -36.18,67.68 -0.72,0 -36,-67.68 -19.8,0 0,125.64 14.76,0 0,-105.66 0.9,0 10.62,20.88 29.88,54.72 30.06,-54.72 10.62,-21.06 0.9,0 0,105.84 z"
         style="font-style:normal;font-variant:normal;font-weight:normal;font-stretch:normal;font-family:'IBM Plex Sans';-inkscape-font-specification:'IBM Plex Sans'"
         id="path4860" />
      <path
         d="m 473.92641,-422.46051 0,-53.64 34.92,0 c 22.5,0 35.1,-13.86 35.1,-36 0,-22.14 -12.6,-36 -35.1,-36 l -50.04,0 0,125.64 15.12,0 z m 0,-112.32 34.92,0 c 11.88,0 18.9,6.48 18.9,18 l 0,9.36 c 0,11.52 -7.02,18 -18.9,18 l -34.92,0 0,-45.36 z"
         style="font-style:normal;font-variant:normal;font-weight:normal;font-stretch:normal;font-family:'IBM Plex Sans';-inkscape-font-specification:'IBM Plex Sans'"
         id="path4862" />
      <path
         d="m 594.43078,-422.46051 0,-12.6 -13.68,0 0,-120.6 -14.4,0 0,118.26 c 0,8.64 5.4,14.94 15.3,14.94 l 12.78,0 z"
         style="font-style:normal;font-variant:normal;font-weight:normal;font-stretch:normal;font-family:'IBM Plex Sans';-inkscape-font-specification:'IBM Plex Sans'"
         id="path4864" />
      <path
         d="m 650.13797,-420.30051 c 17.46,0 30.78,-8.64 36.72,-21.24 l -10.26,-7.38 c -4.86,10.26 -13.86,16.02 -25.56,16.02 -17.28,0 -27.54,-12.06 -27.54,-28.08 l 0,-4.32 66.78,0 0,-6.84 c 0,-26.28 -15.3,-45.36 -40.14,-45.36 -25.2,0 -41.76,19.08 -41.76,48.6 0,29.52 16.56,48.6 41.76,48.6 z m 0,-85.14 c 14.76,0 24.66,10.98 24.66,27.36 l 0,1.98 -51.3,0 0,-1.26 c 0,-16.2 10.98,-28.08 26.64,-28.08 z"
         style="font-style:normal;font-variant:normal;font-weight:normal;font-stretch:normal;font-family:'IBM Plex Sans';-inkscape-font-specification:'IBM Plex Sans'"
         id="path4866" />
      <path
         d="m 715.85766,-422.46051 26.64,-37.26 0.54,0 24.66,37.26 16.38,0 -33.48,-47.88 32.76,-45 -16.02,0 -24.48,34.56 -0.54,0 -23.58,-34.56 -16.92,0 32.94,46.08 -34.38,46.8 15.48,0 z"
         style="font-style:normal;font-variant:normal;font-weight:normal;font-stretch:normal;font-family:'IBM Plex Sans';-inkscape-font-specification:'IBM Plex Sans'"
         id="path4868" />
      <path
         d="m 882.56297,-420.30051 c 27,0 43.2,-14.76 43.2,-37.8 0,-18.72 -10.62,-29.52 -35.1,-35.1 l -10.26,-2.34 c -15.84,-3.6 -23.58,-9 -23.58,-20.88 0,-13.5 9.9,-20.52 25.92,-20.52 14.58,0 24.12,5.94 30.96,15.48 l 11.34,-8.28 c -9.36,-13.32 -22.68,-20.52 -41.58,-20.52 -24.66,0 -41.58,12.06 -41.58,34.38 0,19.26 12.6,29.34 35.46,34.56 l 10.26,2.34 c 16.56,3.78 23.22,9.72 23.22,21.6 0,14.4 -9.72,23.76 -27.72,23.76 -14.58,0 -25.02,-6.3 -33.84,-18 l -11.16,9.36 c 10.08,13.68 24.3,21.96 44.46,21.96 z"
         style="font-style:normal;font-variant:normal;font-weight:normal;font-stretch:normal;font-family:'IBM Plex Sans';-inkscape-font-specification:'IBM Plex Sans'"
         id="path4870" />
      <path
         d="m 1025.857,-422.46051 0,-12.6 -10.62,0 0,-51.12 c 0,-19.62 -13.32,-31.32 -35.63997,-31.32 -16.74,0 -27.9,8.28 -32.94,18.18 l 8.64,8.1 c 5.04,-8.46 12.42,-13.86 23.58,-13.86 14.76,0 21.95997,7.2 21.95997,20.34 l 0,9.18 -18.35997,0 c -27,0 -39.6,9.72 -39.6,27.18 0,17.28 11.52,28.08 31.14,28.08 12.96,0 22.86,-5.94 26.81997,-17.28 l 0.9,0 c 1.08,8.64 5.4,15.12 16.02,15.12 l 8.1,0 z m -49.49997,-10.08 c -11.16,0 -18.36,-5.22 -18.36,-14.4 l 0,-3.78 c 0,-9 7.38,-14.04 23.76,-14.04 l 19.07997,0 0,15.3 c 0,9.54 -10.25997,16.92 -24.47997,16.92 z"
         style="font-style:normal;font-variant:normal;font-weight:normal;font-stretch:normal;font-family:'IBM Plex Sans';-inkscape-font-specification:'IBM Plex Sans'"
         id="path4872" />
      <path
         d="m 1060.6336,-422.46051 0,-64.44 c 0,-11.88 11.16,-17.64 22.68,-17.64 13.86,0 21.06,8.46 21.06,25.02 l 0,57.06 14.4,0 0,-59.58 c 0,-22.5 -12.06,-35.46 -31.14,-35.46 -13.86,0 -21.78,6.84 -26.28,17.28 l -0.72,0 0,-15.12 -14.4,0 0,92.88 14.4,0 z"
         style="font-style:normal;font-variant:normal;font-weight:normal;font-stretch:normal;font-family:'IBM Plex Sans';-inkscape-font-specification:'IBM Plex Sans'"
         id="path4874" />
      <path
         d="m 1176.4383,-420.30051 c 21.24,0 34.38,-10.98 34.38,-28.98 0,-14.04 -7.92,-23.04 -28.44,-26.1 l -7.2,-1.08 c -11.52,-1.8 -17.82,-5.4 -17.82,-14.4 0,-8.82 6.3,-14.4 18.18,-14.4 11.88,0 19.8,5.58 23.94,11.34 l 9.54,-8.64 c -7.56,-9.36 -17.46,-14.94 -32.4,-14.94 -18.9,0 -33.12,9 -33.12,27.36 0,17.28 12.78,24.3 29.88,26.82 l 7.38,1.08 c 12.24,1.8 16.2,7.38 16.2,14.58 0,9.54 -7.2,15.12 -19.44,15.12 -11.7,0 -20.34,-5.22 -27.54,-14.22 l -10.26,8.28 c 8.28,10.98 19.62,18.18 36.72,18.18 z"
         style="font-style:normal;font-variant:normal;font-weight:normal;font-stretch:normal;font-family:'IBM Plex Sans';-inkscape-font-specification:'IBM Plex Sans'"
         id="path4876" />
    </g>
    <g
       style="font-style:normal;font-weight:normal;font-size:180px;line-height:125%;font-family:sans-serif;text-align:center;letter-spacing:0px;word-spacing:0px;text-anchor:middle;fill:#000000;fill-opacity:1;stroke:none;stroke-width:1px;stroke-linecap:butt;stroke-linejoin:miter;stroke-opacity:1"
       id="text4142">
      <path
         d="m 1284.4105,66.453285 0,-43.75 -36.875,0 0,-177.499995 c 0,-68.125 -46.25,-108.75 -123.75,-108.75 -58.125,0 -96.875,28.75 -114.375,63.125 l 30,28.125 c 17.5,-29.375 43.125,-48.125 81.875,-48.125 51.25,0 76.25,25 76.25,70.625 l 0,31.875 -63.75,0 c -93.75,0 -137.49998,33.749995 -137.49998,94.374995 0,60 39.99998,97.5 108.12498,97.5 45,0 79.375,-20.625 93.125,-60 l 3.125,0 c 3.75,30 18.75,52.5 55.625,52.5 l 28.125,0 z m -171.875,-35 c -38.75,0 -63.75,-18.125 -63.75,-50 l 0,-13.125 c 0,-31.25 25.625,-48.75 82.5,-48.75 l 66.25,0 0,53.125 c 0,33.1250002 -35.625,58.75 -85,58.75 z"
         style="font-style:normal;font-variant:normal;font-weight:normal;font-stretch:normal;font-size:625px;font-family:'IBM Plex Sans';-inkscape-font-specification:'IBM Plex Sans';fill:#214152;fill-opacity:1"
         id="path4879" />
    </g>
    <g
       style="font-style:normal;font-weight:normal;font-size:180px;line-height:125%;font-family:sans-serif;text-align:center;letter-spacing:0px;word-spacing:0px;text-anchor:middle;fill:#214152;fill-opacity:1;stroke:none;stroke-width:1px;stroke-linecap:butt;stroke-linejoin:miter;stroke-opacity:1"
       id="text4146">
      <path
         d="m 183.06974,-131.53661 -43.92,-125.64 -19.26,0 -43.919998,125.64 15.3,0 12.599998,-37.08 50.76,0 12.6,37.08 15.84,0 z m -32.22,-50.4 -43.38,0 21.24,-61.2 0.9,0 21.24,61.2 z"
         style="font-style:normal;font-variant:normal;font-weight:normal;font-stretch:normal;font-family:'IBM Plex Sans';-inkscape-font-specification:'IBM Plex Sans'"
         id="path4882" />
      <path
         d="m 278.74537,-131.53661 0,-12.6 -10.62,0 0,-51.12 c 0,-19.62 -13.32,-31.32 -35.64,-31.32 -16.74,0 -27.9,8.28 -32.94,18.18 l 8.64,8.1 c 5.04,-8.46 12.42,-13.86 23.58,-13.86 14.76,0 21.96,7.2 21.96,20.34 l 0,9.18 -18.36,0 c -27,0 -39.6,9.72 -39.6,27.18 0,17.28 11.52,28.08 31.14,28.08 12.96,0 22.86,-5.94 26.82,-17.28 l 0.9,0 c 1.08,8.64 5.4,15.12 16.02,15.12 l 8.1,0 z m -49.5,-10.08 c -11.16,0 -18.36,-5.22 -18.36,-14.4 l 0,-3.78 c 0,-9 7.38,-14.04 23.76,-14.04 l 19.08,0 0,15.3 c 0,9.54 -10.26,16.92 -24.48,16.92 z"
         style="font-style:normal;font-variant:normal;font-weight:normal;font-stretch:normal;font-family:'IBM Plex Sans';-inkscape-font-specification:'IBM Plex Sans'"
         id="path4884" />
      <path
         d="m 419.78099,-131.53661 0,-13.32 -61.56,0 0,-46.44 57.96,0 0,-13.32 -57.96,0 0,-39.24 61.56,0 0,-13.32 -76.68,0 0,125.64 76.68,0 z"
         style="font-style:normal;font-variant:normal;font-weight:normal;font-stretch:normal;font-family:'IBM Plex Sans';-inkscape-font-specification:'IBM Plex Sans'"
         id="path4886" />
      <path
         d="m 479.94037,-129.37661 c 17.46,0 30.78,-8.64 36.72,-21.24 l -10.26,-7.38 c -4.86,10.26 -13.86,16.02 -25.56,16.02 -17.28,0 -27.54,-12.06 -27.54,-28.08 l 0,-4.32 66.78,0 0,-6.84 c 0,-26.28 -15.3,-45.36 -40.14,-45.36 -25.2,0 -41.76,19.08 -41.76,48.6 0,29.52 16.56,48.6 41.76,48.6 z m 0,-85.14 c 14.76,0 24.66,10.98 24.66,27.36 l 0,1.98 -51.3,0 0,-1.26 c 0,-16.2 10.98,-28.08 26.64,-28.08 z"
         style="font-style:normal;font-variant:normal;font-weight:normal;font-stretch:normal;font-family:'IBM Plex Sans';-inkscape-font-specification:'IBM Plex Sans'"
         id="path4888" />
      <path
         d="m 602.90849,-185.53661 29.34,0 27.18,54 17.1,0 -28.8,-55.44 c 16.38,-3.78 25.2,-16.2 25.2,-34.56 0,-22.86 -13.14,-35.64 -35.1,-35.64 l -50.04,0 0,125.64 15.12,0 0,-54 z m 0,-12.96 0,-45.36 34.92,0 c 11.88,0 18.9,6.48 18.9,18 l 0,9.36 c 0,11.52 -7.02,18 -18.9,18 l -34.92,0 z"
         style="font-style:normal;font-variant:normal;font-weight:normal;font-stretch:normal;font-family:'IBM Plex Sans';-inkscape-font-specification:'IBM Plex Sans'"
         id="path4890" />
      <path
         d="m 716.06099,-131.53661 0,-63 c 0,-8.82 9.36,-15.48 24.84,-15.48 l 8.46,0 0,-14.4 -5.58,0 c -15.12,0 -23.58,8.28 -26.82,17.1 l -0.9,0 0,-17.1 -14.4,0 0,92.88 14.4,0 z"
         style="font-style:normal;font-variant:normal;font-weight:normal;font-stretch:normal;font-family:'IBM Plex Sans';-inkscape-font-specification:'IBM Plex Sans'"
         id="path4892" />
    </g>
    <g
       style="font-style:normal;font-weight:normal;font-size:180px;line-height:125%;font-family:sans-serif;text-align:center;letter-spacing:0px;word-spacing:0px;text-anchor:middle;fill:#214152;fill-opacity:1;stroke:none;stroke-width:1px;stroke-linecap:butt;stroke-linejoin:miter;stroke-opacity:1"
       id="text4150">
      <path
         d="m 176.2663,54.331463 -16.92,-125.64 -19.26,0 -67.139995,125.64 15.48,0 19.439995,-37.08 48.78,0 4.68,37.08 14.94,0 z m -21.06,-50.0400001 -40.68,0 32.04,-61.7399999 0.9,0 7.74,61.7399999 z"
         style="font-style:italic;font-variant:normal;font-weight:normal;font-stretch:normal;font-family:'IBM Plex Sans';-inkscape-font-specification:'IBM Plex Sans'"
         id="path4895" />
      <path
         d="m 277.51912,54.331463 2.34,-12.24 -13.14,0 16.2,-80.64 -13.86,0 -3.06,15.12 -0.72,0 c -2.7,-11.7 -13.14,-17.28 -24.3,-17.28 -30.78,0 -45.36,34.3799999 -45.36,61.74 0,21.96 11.34,35.46 28.26,35.46 13.68,0 22.5,-6.84 30.06,-22.32 l 0.54,0 -0.9,4.14 c -0.36,1.8 -0.54,3.42 -0.54,4.86 0,6.66 3.96,11.16 12.06,11.16 l 12.42,0 z m -50.22,-10.44 c -12.06,0 -17.46,-9.18 -17.46,-21.06 0,-2.88 0.36,-6.12 0.9,-9.18 l 2.7,-13.50000014 c 3.6,-17.99999986 13.5,-28.25999986 29.16,-28.25999986 14.22,0 22.32,10.08 20.7,18.1799999 l -4.5,22.3200001 c -1.8,9 -5.4,16.02 -11.7,22.32 -5.4,5.4 -11.16,9.18 -19.8,9.18 z"
         style="font-style:italic;font-variant:normal;font-weight:normal;font-stretch:normal;font-family:'IBM Plex Sans';-inkscape-font-specification:'IBM Plex Sans'"
         id="path4897" />
      <path
         d="m 418.15537,54.331463 2.52,-12.96 -62.28,0 9.36,-46.9800001 53.46,0 2.52,-12.9599999 -53.28,0 7.92,-39.78 59.22,0 2.7,-12.96 -73.98,0 -25.2,125.64 77.04,0 z"
         style="font-style:italic;font-variant:normal;font-weight:normal;font-stretch:normal;font-family:'IBM Plex Sans';-inkscape-font-specification:'IBM Plex Sans'"
         id="path4899" />
      <path
         d="m 477.85912,56.491463 c 13.32,0 26.82,-5.04 38.34,-19.08 l -9,-8.1 c -7.2,8.82 -16.74,14.76 -28.44,14.76 -14.4,0 -22.14,-8.82 -22.14,-21.96 0,-1.98 0.18,-5.04 0.54,-7.56 43.2,-0.36 64.08,-10.0800001 64.08,-30.42 0,-16.74 -14.04,-24.84 -29.88,-24.84 -29.16,0 -48.6,27.54 -48.6,58.32 0,25.2 12.96,38.88 35.1,38.88 z m 12.06,-85.32 c 8.82,0 17.1,2.88 17.1,12.78 0,12.7799999 -8.28,18.3599999 -48.06,19.7999999 l 1.08,-5.22 c 3.42,-16.5599999 15.3,-27.3599999 29.88,-27.3599999 z"
         style="font-style:italic;font-variant:normal;font-weight:normal;font-stretch:normal;font-family:'IBM Plex Sans';-inkscape-font-specification:'IBM Plex Sans'"
         id="path4901" />
      <path
         d="m 600.98755,0.33146286 28.44,0 17.1,54.00000014 15.66,0 -18.36,-55.4400001 c 20.16,-3.96 32.94,-20.8799999 32.94,-40.1399999 0,-17.28 -9,-30.06 -31.14,-30.06 l -44.82,0 -25.2,125.64 14.58,0 10.8,-54.00000014 z m 2.7,-12.77999986 9,-45.9 31.86,0 c 12.6,0 17.1,5.94 17.1,14.58 0,2.88 -0.54,5.22 -2.16,13.32 -2.34,11.7 -10.8,18 -22.68,18 l -33.12,0 z"
         style="font-style:italic;font-variant:normal;font-weight:normal;font-stretch:normal;font-family:'IBM Plex Sans';-inkscape-font-specification:'IBM Plex Sans'"
         id="path4903" />
      <path
         d="m 701.42755,54.331463 11.16,-55.26000014 c 2.52,-12.59999986 11.88,-23.39999986 28.98,-23.39999986 l 6.48,0 2.7,-14.22 -5.76,0 c -15.12,0 -22.86,9.36 -27.9,18.54 l -0.9,0 3.96,-18.54 -13.86,0 -18.72,92.88 13.86,0 z"
         style="font-style:italic;font-variant:normal;font-weight:normal;font-stretch:normal;font-family:'IBM Plex Sans';-inkscape-font-specification:'IBM Plex Sans'"
         id="path4905" />
    </g>
    <g
       style="font-style:normal;font-weight:normal;font-size:180px;line-height:125%;font-family:sans-serif;text-align:center;letter-spacing:0px;word-spacing:0px;text-anchor:middle;fill:#5a6872;fill-opacity:1;stroke:none;stroke-width:1px;stroke-linecap:butt;stroke-linejoin:miter;stroke-opacity:1"
       id="text4173">
      <path
         d="m 524.47095,349.29602 20.25,0 0,-130.875 -24.9375,0 -35.0625,66.5625 -0.5625,0 -35.25,-66.5625 -24.5625,0 0,130.875 20.25,0 0,-100.3125 0.75,0 10.5,21.375 28.5,52.3125 28.875,-52.5 10.3125,-20.8125 0.9375,0 0,99.9375 z"
         style="font-style:normal;font-variant:normal;font-weight:600;font-stretch:normal;font-size:187.5px;font-family:'IBM Plex Sans';-inkscape-font-specification:'IBM Plex Sans Semi-Bold';fill:#5a6872;fill-opacity:1"
         id="path4908" />
      <path
         d="m 658.43091,349.29602 0,-16.6875 -10.3125,0 0,-48.9375 c 0,-21.75 -14.0625,-34.125 -39.1875,-34.125 -18.9375,0 -30.375,8.0625 -36.75,18.9375 l 12.1875,11.0625 c 4.875,-7.6875 11.8125,-13.3125 23.25,-13.3125 13.6875,0 20.0625,6.9375 20.0625,18.75 l 0,8.25 -17.625,0 c -27.1875,0 -41.625,9.9375 -41.625,29.25 0,17.625 11.4375,29.0625 31.5,29.0625 14.25,0 24.75,-6.375 28.5,-18.5625 l 0.9375,0 c 1.3125,9.5625 6.9375,16.3125 17.625,16.3125 l 11.4375,0 z m -52.6875,-13.3125 c -10.125,0 -16.5,-4.5 -16.5,-13.125 l 0,-3.375 c 0,-8.4375 6.9375,-13.125 21.1875,-13.125 l 17.25,0 0,14.0625 c 0,9.5625 -9.375,15.5625 -21.9375,15.5625 z"
         style="font-style:normal;font-variant:normal;font-weight:600;font-stretch:normal;font-size:187.5px;font-family:'IBM Plex Sans';-inkscape-font-specification:'IBM Plex Sans Semi-Bold';fill:#5a6872;fill-opacity:1"
         id="path4910" />
      <path
         d="m 688.77368,234.35852 c 8.4375,0 12,-4.5 12,-10.6875 l 0,-3.1875 c 0,-6.1875 -3.5625,-10.6875 -12,-10.6875 -8.4375,0 -12.1875,4.5 -12.1875,10.6875 l 0,3.1875 c 0,6.1875 3.75,10.6875 12.1875,10.6875 z m -10.3125,114.9375 20.4375,0 0,-97.5 -20.4375,0 0,97.5 z"
         style="font-style:normal;font-variant:normal;font-weight:600;font-stretch:normal;font-size:187.5px;font-family:'IBM Plex Sans';-inkscape-font-specification:'IBM Plex Sans Semi-Bold';fill:#5a6872;fill-opacity:1"
         id="path4912" />
      <path
         d="m 748.70337,349.29602 0,-65.25 c 0,-11.4375 10.5,-16.875 21.1875,-16.875 12.5625,0 18.375,7.6875 18.375,22.875 l 0,59.25 20.4375,0 0,-61.875 c 0,-24 -11.8125,-37.875 -31.6875,-37.875 -15,0 -23.25,7.875 -27.375,18.375 l -0.9375,0 0,-16.125 -20.4375,0 0,97.5 20.4375,0 z"
         style="font-style:normal;font-variant:normal;font-weight:600;font-stretch:normal;font-size:187.5px;font-family:'IBM Plex Sans';-inkscape-font-specification:'IBM Plex Sans Semi-Bold';fill:#5a6872;fill-opacity:1"
         id="path4914" />
      <path
         d="m 842.09302,349.29602 20.4375,0 0,-80.8125 20.4375,0 0,-16.6875 -20.4375,0 0,-24.5625 20.4375,0 0,-16.6875 -16.125,0 c -16.3125,0 -24.75,9.375 -24.75,25.125 l 0,16.125 -14.8125,0 0,16.6875 14.8125,0 0,80.8125 z"
         style="font-style:normal;font-variant:normal;font-weight:600;font-stretch:normal;font-size:187.5px;font-family:'IBM Plex Sans';-inkscape-font-specification:'IBM Plex Sans Semi-Bold';fill:#5a6872;fill-opacity:1"
         id="path4916" />
      <path
         d="m 921.18872,349.29602 0,-62.25 c 0,-10.125 9,-15.5625 25.125,-15.5625 l 8.0625,0 0,-19.6875 -5.4375,0 c -15.5625,0 -24,8.8125 -26.8125,18.75 l -0.9375,0 0,-18.75 -20.4375,0 0,97.5 20.4375,0 z"
         style="font-style:normal;font-variant:normal;font-weight:600;font-stretch:normal;font-size:187.5px;font-family:'IBM Plex Sans';-inkscape-font-specification:'IBM Plex Sans Semi-Bold';fill:#5a6872;fill-opacity:1"
         id="path4918" />
      <path
         d="m 1053.9387,349.29602 0,-16.6875 -10.3125,0 0,-48.9375 c 0,-21.75 -14.0625,-34.125 -39.1875,-34.125 -18.93748,0 -30.37498,8.0625 -36.74998,18.9375 l 12.1875,11.0625 c 4.875,-7.6875 11.8125,-13.3125 23.24998,-13.3125 13.6875,0 20.0625,6.9375 20.0625,18.75 l 0,8.25 -17.625,0 c -27.18748,0 -41.62498,9.9375 -41.62498,29.25 0,17.625 11.4375,29.0625 31.5,29.0625 14.24998,0 24.74998,-6.375 28.49998,-18.5625 l 0.9375,0 c 1.3125,9.5625 6.9375,16.3125 17.625,16.3125 l 11.4375,0 z m -52.6875,-13.3125 c -10.12498,0 -16.49998,-4.5 -16.49998,-13.125 l 0,-3.375 c 0,-8.4375 6.9375,-13.125 21.18748,-13.125 l 17.25,0 0,14.0625 c 0,9.5625 -9.375,15.5625 -21.9375,15.5625 z"
         style="font-style:normal;font-variant:normal;font-weight:600;font-stretch:normal;font-size:187.5px;font-family:'IBM Plex Sans';-inkscape-font-specification:'IBM Plex Sans Semi-Bold';fill:#5a6872;fill-opacity:1"
         id="path4920" />
      <path
         d="m 1094.4065,349.29602 0,-65.4375 c 0,-11.25 9.9375,-16.6875 20.0625,-16.6875 12,0 17.8125,7.5 17.8125,22.6875 l 0,59.4375 20.4375,0 0,-65.4375 c 0,-11.25 9.5625,-16.6875 19.875,-16.6875 12.375,0 18,7.6875 18,22.6875 l 0,59.4375 20.4375,0 0,-61.875 c 0,-24 -11.4375,-37.875 -30.75,-37.875 -15.75,0 -25.875,9 -29.4375,19.875 l -0.5625,0 c -4.6875,-13.5 -15.75,-19.875 -28.875,-19.875 -14.8125,0 -22.125,8.25 -26.0625,18.375 l -0.9375,0 0,-16.125 -20.4375,0 0,97.5 20.4375,0 z"
         style="font-style:normal;font-variant:normal;font-weight:600;font-stretch:normal;font-size:187.5px;font-family:'IBM Plex Sans';-inkscape-font-specification:'IBM Plex Sans Semi-Bold';fill:#5a6872;fill-opacity:1"
         id="path4922" />
      <path
         d="m 1277.7463,351.54602 c 18.1875,0 32.4375,-7.875 39.75,-19.6875 l -12,-11.8125 c -5.625,9 -13.6875,14.625 -25.6875,14.625 -16.5,0 -25.6875,-10.6875 -25.6875,-25.6875 l 0,-3.1875 66.9375,0 0,-7.6875 c 0,-27 -14.625,-48.5625 -43.3125,-48.5625 -27.75,0 -44.8125,19.875 -44.8125,51 0,31.125 17.0625,51 44.8125,51 z m 0,-86.0625 c 13.5,0 21.75,9.9375 21.75,24.9375 l 0,1.875 -45.375,0 0,-1.3125 c 0,-15 9.5625,-25.5 23.625,-25.5 z"
         style="font-style:normal;font-variant:normal;font-weight:600;font-stretch:normal;font-size:187.5px;font-family:'IBM Plex Sans';-inkscape-font-specification:'IBM Plex Sans Semi-Bold';fill:#5a6872;fill-opacity:1"
         id="path4924" />
    </g>
    <path
       style="fill:#3d70b2;fill-opacity:1;stroke:#000000;stroke-width:0.9965499;stroke-miterlimit:4;stroke-dasharray:2.98964981, 2.98964981;stroke-dashoffset:0;stroke-opacity:1"
       d="m -0.00172485,470.51254 1406.13572485,0 0,581.85136 -1406.13572485,0 z"
       id="rect4177" />
    <g
       style="font-style:normal;font-weight:normal;font-size:180px;line-height:125%;font-family:sans-serif;text-align:center;letter-spacing:0px;word-spacing:0px;text-anchor:middle;fill:#f5f7fa;fill-opacity:1;stroke:none;stroke-width:1px;stroke-linecap:butt;stroke-linejoin:miter;stroke-opacity:1"
       id="text4179">
      <path
         d="m 129.68109,632.13873 0,-9.625 -8.1125,0 0,-39.05 c 0,-14.9875 -10.175,-23.925 -27.224999,-23.925 -12.7875,0 -21.3125,6.325 -25.1625,13.8875 l 6.6,6.1875 c 3.85,-6.4625 9.4875,-10.5875 18.0125,-10.5875 11.274999,0 16.774999,5.5 16.774999,15.5375 l 0,7.0125 -14.024999,0 c -20.625,0 -30.25,7.425 -30.25,20.7625 0,13.2 8.8,21.45 23.7875,21.45 9.9,0 17.462499,-4.5375 20.487499,-13.2 l 0.6875,0 c 0.825,6.6 4.125,11.55 12.2375,11.55 l 6.1875,0 z m -37.812499,-7.7 c -8.525,0 -14.025,-3.9875 -14.025,-11 l 0,-2.8875 c 0,-6.875 5.6375,-10.725 18.15,-10.725 l 14.574999,0 0,11.6875 c 0,7.2875 -7.8375,12.925 -18.699999,12.925 z"
         style="font-style:normal;font-variant:normal;font-weight:normal;font-stretch:normal;font-size:137.5px;font-family:'IBM Plex Sans';-inkscape-font-specification:'IBM Plex Sans';fill:#f5f7fa;fill-opacity:1"
         id="path4928" />
      <path
         d="m 177.74164,632.13873 11,0 0,-11.55 0.55,0 c 4.2625,8.8 11,13.2 20.7625,13.2 17.7375,0 28.875,-14.4375 28.875,-37.125 0,-22.6875 -11.1375,-37.125 -28.875,-37.125 -9.7625,0 -17.05,4.2625 -20.7625,13.2 l -0.55,0 0,-42.35 -11,0 0,101.75 z m 29.2875,-8.25 c -10.0375,0 -18.2875,-5.225 -18.2875,-14.4375 l 0,-26.4 c 0,-7.8375 8.25,-13.6125 18.2875,-13.6125 12.375,0 20.075,8.525 20.075,21.175 l 0,12.1 c 0,12.65 -7.7,21.175 -20.075,21.175 z"
         style="font-style:normal;font-variant:normal;font-weight:normal;font-stretch:normal;font-size:137.5px;font-family:'IBM Plex Sans';-inkscape-font-specification:'IBM Plex Sans';fill:#f5f7fa;fill-opacity:1"
         id="path4930" />
      <path
         d="m 316.3975,633.78873 c 13.475,0 22.6875,-6.6 27.225,-16.775 l -7.975,-5.3625 c -3.85,8.1125 -10.3125,12.375 -19.25,12.375 -13.0625,0 -19.8,-8.9375 -19.8,-21.3125 l 0,-12.1 c 0,-12.375 6.7375,-21.3125 19.8,-21.3125 8.6625,0 14.7125,4.2625 17.325,11.55 l 9.2125,-4.675 c -4.125,-9.7625 -12.5125,-16.6375 -26.5375,-16.6375 -19.9375,0 -31.625,14.4375 -31.625,37.125 0,22.6875 11.6875,37.125 31.625,37.125 z"
         style="font-style:normal;font-variant:normal;font-weight:normal;font-stretch:normal;font-size:137.5px;font-family:'IBM Plex Sans';-inkscape-font-specification:'IBM Plex Sans';fill:#f5f7fa;fill-opacity:1"
         id="path4932" />
      <path
         d="m 437.15472,632.13873 11,0 0,-101.75 -11,0 0,42.35 -0.55,0 c -3.7125,-8.9375 -11,-13.2 -20.7625,-13.2 -17.7375,0 -28.875,14.4375 -28.875,37.125 0,22.6875 11.1375,37.125 28.875,37.125 9.7625,0 16.5,-4.4 20.7625,-13.2 l 0.55,0 0,11.55 z m -18.2875,-8.25 c -12.375,0 -20.075,-8.525 -20.075,-21.175 l 0,-12.1 c 0,-12.65 7.7,-21.175 20.075,-21.175 10.0375,0 18.2875,5.775 18.2875,13.6125 l 0,26.4 c 0,9.2125 -8.25,14.4375 -18.2875,14.4375 z"
         style="font-style:normal;font-variant:normal;font-weight:normal;font-stretch:normal;font-size:137.5px;font-family:'IBM Plex Sans';-inkscape-font-specification:'IBM Plex Sans';fill:#f5f7fa;fill-opacity:1"
         id="path4934" />
      <path
         d="m 530.71058,633.78873 c 13.3375,0 23.5125,-6.6 28.05,-16.225 l -7.8375,-5.6375 c -3.7125,7.8375 -10.5875,12.2375 -19.525,12.2375 -13.2,0 -21.0375,-9.2125 -21.0375,-21.45 l 0,-3.3 51.0125,0 0,-5.225 c 0,-20.075 -11.6875,-34.65 -30.6625,-34.65 -19.25,0 -31.9,14.575 -31.9,37.125 0,22.55 12.65,37.125 31.9,37.125 z m 0,-65.0375 c 11.275,0 18.8375,8.3875 18.8375,20.9 l 0,1.5125 -39.1875,0 0,-0.9625 c 0,-12.375 8.3875,-21.45 20.35,-21.45 z"
         style="font-style:normal;font-variant:normal;font-weight:normal;font-stretch:normal;font-size:137.5px;font-family:'IBM Plex Sans';-inkscape-font-specification:'IBM Plex Sans';fill:#f5f7fa;fill-opacity:1"
         id="path4936" />
      <path
         d="m 615.84457,632.13873 11,0 0,-61.325 15.2625,0 0,-9.625 -15.2625,0 0,-21.175 15.2625,0 0,-9.625 -10.725,0 c -10.45,0 -15.5375,6.7375 -15.5375,16.5 l 0,14.3 -11.55,0 0,9.625 11.55,0 0,61.325 z"
         style="font-style:normal;font-variant:normal;font-weight:normal;font-stretch:normal;font-size:137.5px;font-family:'IBM Plex Sans';-inkscape-font-specification:'IBM Plex Sans';fill:#f5f7fa;fill-opacity:1"
         id="path4938" />
      <path
         d="m 748.88226,639.97623 c 0,-11.6875 -7.5625,-18.8375 -25.1625,-18.8375 l -15.125,0 c -6.4625,0 -10.8625,-1.1 -10.8625,-5.3625 0,-4.4 4.675,-6.7375 9.35,-7.975 2.0625,0.4125 4.5375,0.6875 6.875,0.6875 16.225,0 26.8125,-10.0375 26.8125,-24.475 0,-7.5625 -3.025,-13.8875 -8.1125,-18.2875 l 0,-4.5375 13.475,0 0,-9.625 -10.5875,0 c -5.9125,0 -8.25,3.9875 -8.25,9.4875 l 0,1.2375 c -3.85,-1.7875 -8.3875,-2.75 -13.475,-2.75 -16.0875,0 -26.675,10.0375 -26.675,24.475 0,9.9 4.95,17.7375 13.3375,21.725 l 0,0.55 c -7.15,1.7875 -12.2375,5.225 -12.2375,12.375 0,4.8125 2.3375,7.975 6.325,9.9 l 0,1.5125 c -7.0125,1.925 -11.275,6.05 -11.275,13.75 0,11.1375 9.075,17.4625 31.2125,17.4625 22.825,0 34.375,-6.7375 34.375,-21.3125 z m -10.3125,0.825 c 0,7.7 -7.15,11.55 -19.3875,11.55 l -10.175,0 c -11.1375,0 -15.4,-5.0875 -15.4,-11.275 0,-4.4 2.0625,-7.5625 6.6,-9.625 l 23.65,0 c 11,0 14.7125,3.7125 14.7125,9.35 z m -24.6125,-41.1125 c -9.35,0 -15.2625,-4.4 -15.2625,-13.75 l 0,-3.85 c 0,-9.35 5.9125,-13.75 15.2625,-13.75 9.35,0 15.2625,4.4 15.2625,13.75 l 0,3.85 c 0,9.35 -5.9125,13.75 -15.2625,13.75 z"
         style="font-style:normal;font-variant:normal;font-weight:normal;font-stretch:normal;font-size:137.5px;font-family:'IBM Plex Sans';-inkscape-font-specification:'IBM Plex Sans';fill:#f5f7fa;fill-opacity:1"
         id="path4940" />
      <path
         d="m 794.07465,632.13873 11,0 0,-49.225 c 0,-9.075 8.525,-13.475 17.325,-13.475 10.5875,0 16.0875,6.4625 16.0875,19.1125 l 0,43.5875 11,0 0,-45.5125 c 0,-17.1875 -9.2125,-27.0875 -23.7875,-27.0875 -10.5875,0 -16.6375,5.225 -20.075,13.2 l -0.55,0 0,-42.35 -11,0 0,101.75 z"
         style="font-style:normal;font-variant:normal;font-weight:normal;font-stretch:normal;font-size:137.5px;font-family:'IBM Plex Sans';-inkscape-font-specification:'IBM Plex Sans';fill:#f5f7fa;fill-opacity:1"
         id="path4942" />
      <path
         d="m 910.21918,544.55123 c 4.675,0 6.7375,-2.475 6.7375,-6.1875 l 0,-1.7875 c 0,-3.7125 -2.0625,-6.1875 -6.7375,-6.1875 -4.675,0 -6.7375,2.475 -6.7375,6.1875 l 0,1.7875 c 0,3.7125 2.0625,6.1875 6.7375,6.1875 z m -5.5,87.5875 11,0 0,-70.95 -11,0 0,70.95 z"
         style="font-style:normal;font-variant:normal;font-weight:normal;font-stretch:normal;font-size:137.5px;font-family:'IBM Plex Sans';-inkscape-font-specification:'IBM Plex Sans';fill:#f5f7fa;fill-opacity:1"
         id="path4944" />
      <path
         d="m 971.58929,650.01373 -11.55,0 0,9.625 7.15,0 c 10.5875,0 15.4,-6.7375 15.4,-16.5 l 0,-81.95 -11,0 0,88.825 z m 5.5,-105.4625 c 4.675,0 6.7375,-2.475 6.7375,-6.1875 l 0,-1.7875 c 0,-3.7125 -2.0625,-6.1875 -6.7375,-6.1875 -4.675,0 -6.7375,2.475 -6.7375,6.1875 l 0,1.7875 c 0,3.7125 2.0625,6.1875 6.7375,6.1875 z"
         style="font-style:normal;font-variant:normal;font-weight:normal;font-stretch:normal;font-size:137.5px;font-family:'IBM Plex Sans';-inkscape-font-specification:'IBM Plex Sans';fill:#f5f7fa;fill-opacity:1"
         id="path4946" />
      <path
         d="m 1038.4594,632.13873 11,0 0,-25.3 10.5875,-10.8625 23.5125,36.1625 13.3375,0 -28.875,-42.9 26.2625,-28.05 -13.3375,0 -20.075,21.5875 -10.8625,12.1 -0.55,0 0,-64.4875 -11,0 0,101.75 z"
         style="font-style:normal;font-variant:normal;font-weight:normal;font-stretch:normal;font-size:137.5px;font-family:'IBM Plex Sans';-inkscape-font-specification:'IBM Plex Sans';fill:#f5f7fa;fill-opacity:1"
         id="path4948" />
      <path
         d="m 1164.9143,632.13873 0,-9.625 -10.45,0 0,-92.125 -11,0 0,90.3375 c 0,6.6 4.125,11.4125 11.6875,11.4125 l 9.7625,0 z"
         style="font-style:normal;font-variant:normal;font-weight:normal;font-stretch:normal;font-size:137.5px;font-family:'IBM Plex Sans';-inkscape-font-specification:'IBM Plex Sans';fill:#f5f7fa;fill-opacity:1"
         id="path4950" />
      <path
         d="m 1224.2885,632.13873 0,-49.225 c 0,-9.075 8.25,-13.475 16.9125,-13.475 10.45,0 15.2625,6.4625 15.2625,19.1125 l 0,43.5875 11,0 0,-49.225 c 0,-9.075 7.975,-13.475 16.6375,-13.475 10.725,0 15.5375,6.6 15.5375,19.1125 l 0,43.5875 11,0 0,-45.5125 c 0,-17.1875 -8.6625,-27.0875 -23.1,-27.0875 -12.1,0 -18.975,6.7375 -21.5875,14.4375 l -0.275,0 c -3.85,-10.175 -12.375,-14.4375 -21.725,-14.4375 -11,0 -15.95,5.9125 -19.1125,13.2 l -0.55,0 0,-11.55 -11,0 0,70.95 11,0 z"
         style="font-style:normal;font-variant:normal;font-weight:normal;font-stretch:normal;font-size:137.5px;font-family:'IBM Plex Sans';-inkscape-font-specification:'IBM Plex Sans';fill:#f5f7fa;fill-opacity:1"
         id="path4952" />
      <path
         d="m 51.64447,804.01373 0,-49.225 c 0,-9.075 8.525,-13.475 17.325,-13.475 10.5875,0 16.0875,6.4625 16.0875,19.1125 l 0,43.5875 11,0 0,-45.5125 c 0,-17.1875 -9.2125,-27.0875 -23.7875,-27.0875 -10.5875,0 -16.6375,5.225 -20.075,13.2 l -0.55,0 0,-11.55 -11,0 0,70.95 11,0 z"
         style="font-style:normal;font-variant:normal;font-weight:normal;font-stretch:normal;font-size:137.5px;font-family:'IBM Plex Sans';-inkscape-font-specification:'IBM Plex Sans';fill:#f5f7fa;fill-opacity:1"
         id="path4954" />
      <path
         d="m 178.1015,805.66373 c 18.975,0 32.0375,-14.575 32.0375,-37.125 0,-22.55 -13.0625,-37.125 -32.0375,-37.125 -18.975,0 -32.0375,14.575 -32.0375,37.125 0,22.55 13.0625,37.125 32.0375,37.125 z m 0,-9.7625 c -11.825,0 -20.2125,-7.2875 -20.2125,-22.275 l 0,-10.175 c 0,-14.9875 8.3875,-22.275 20.2125,-22.275 11.825,0 20.2125,7.2875 20.2125,22.275 l 0,10.175 c 0,14.9875 -8.3875,22.275 -20.2125,22.275 z"
         style="font-style:normal;font-variant:normal;font-weight:normal;font-stretch:normal;font-size:137.5px;font-family:'IBM Plex Sans';-inkscape-font-specification:'IBM Plex Sans';fill:#f5f7fa;fill-opacity:1"
         id="path4956" />
      <path
         d="m 260.85931,831.51373 11,0 0,-39.05 0.55,0 c 4.2625,8.8 11,13.2 20.7625,13.2 17.7375,0 28.875,-14.4375 28.875,-37.125 0,-22.6875 -11.1375,-37.125 -28.875,-37.125 -9.7625,0 -17.05,4.2625 -20.7625,13.2 l -0.55,0 0,-11.55 -11,0 0,98.45 z m 29.2875,-35.75 c -10.0375,0 -18.2875,-5.225 -18.2875,-14.4375 l 0,-26.4 c 0,-7.8375 8.25,-13.6125 18.2875,-13.6125 12.375,0 20.075,8.525 20.075,21.175 l 0,12.1 c 0,12.65 -7.7,21.175 -20.075,21.175 z"
         style="font-style:normal;font-variant:normal;font-weight:normal;font-stretch:normal;font-size:137.5px;font-family:'IBM Plex Sans';-inkscape-font-specification:'IBM Plex Sans';fill:#f5f7fa;fill-opacity:1"
         id="path4958" />
      <path
         d="m 418.49017,831.51373 11,0 0,-98.45 -11,0 0,11.55 -0.55,0 c -3.7125,-8.9375 -11,-13.2 -20.7625,-13.2 -17.7375,0 -28.875,14.4375 -28.875,37.125 0,22.6875 11.1375,37.125 28.875,37.125 9.7625,0 16.5,-4.4 20.7625,-13.2 l 0.55,0 0,39.05 z m -18.2875,-35.75 c -12.375,0 -20.075,-8.525 -20.075,-21.175 l 0,-12.1 c 0,-12.65 7.7,-21.175 20.075,-21.175 10.0375,0 18.2875,5.775 18.2875,13.6125 l 0,26.4 c 0,9.2125 -8.25,14.4375 -18.2875,14.4375 z"
         style="font-style:normal;font-variant:normal;font-weight:normal;font-stretch:normal;font-size:137.5px;font-family:'IBM Plex Sans';-inkscape-font-specification:'IBM Plex Sans';fill:#f5f7fa;fill-opacity:1"
         id="path4960" />
      <path
         d="m 496.37103,804.01373 0,-48.125 c 0,-6.7375 7.15,-11.825 18.975,-11.825 l 6.4625,0 0,-11 -4.2625,0 c -11.55,0 -18.0125,6.325 -20.4875,13.0625 l -0.6875,0 0,-13.0625 -11,0 0,70.95 11,0 z"
         style="font-style:normal;font-variant:normal;font-weight:normal;font-stretch:normal;font-size:137.5px;font-family:'IBM Plex Sans';-inkscape-font-specification:'IBM Plex Sans';fill:#f5f7fa;fill-opacity:1"
         id="path4962" />
      <path
         d="m 589.66693,805.66373 c 16.225,0 26.2625,-8.3875 26.2625,-22.1375 0,-10.725 -6.05,-17.6 -21.725,-19.9375 l -5.5,-0.825 c -8.8,-1.375 -13.6125,-4.125 -13.6125,-11 0,-6.7375 4.8125,-11 13.8875,-11 9.075,0 15.125,4.2625 18.2875,8.6625 l 7.2875,-6.6 c -5.775,-7.15 -13.3375,-11.4125 -24.75,-11.4125 -14.4375,0 -25.3,6.875 -25.3,20.9 0,13.2 9.7625,18.5625 22.825,20.4875 l 5.6375,0.825 c 9.35,1.375 12.375,5.6375 12.375,11.1375 0,7.2875 -5.5,11.55 -14.85,11.55 -8.9375,0 -15.5375,-3.9875 -21.0375,-10.8625 l -7.8375,6.325 c 6.325,8.3875 14.9875,13.8875 28.05,13.8875 z"
         style="font-style:normal;font-variant:normal;font-weight:normal;font-stretch:normal;font-size:137.5px;font-family:'IBM Plex Sans';-inkscape-font-specification:'IBM Plex Sans';fill:#f5f7fa;fill-opacity:1"
         id="path4964" />
      <path
         d="m 697.14467,804.01373 0,-9.625 -14.4375,0 0,-51.7 15.5375,0 0,-9.625 -15.5375,0 0,-19.6625 -9.9,0 0,13.2 c 0,4.8125 -1.5125,6.4625 -6.1875,6.4625 l -6.6,0 0,9.625 11.6875,0 0,49.6375 c 0,6.875 4.125,11.6875 11.6875,11.6875 l 13.75,0 z"
         style="font-style:normal;font-variant:normal;font-weight:normal;font-stretch:normal;font-size:137.5px;font-family:'IBM Plex Sans';-inkscape-font-specification:'IBM Plex Sans';fill:#f5f7fa;fill-opacity:1"
         id="path4966" />
      <path
         d="m 792.27963,804.01373 11,0 0,-70.95 -11,0 0,49.0875 c 0,9.35 -8.525,13.6125 -17.1875,13.6125 -10.5875,0 -16.225,-6.4625 -16.225,-19.1125 l 0,-43.5875 -11,0 0,45.5125 c 0,17.1875 9.35,27.0875 23.925,27.0875 11.825,0 17.1875,-6.4625 19.9375,-13.2 l 0.55,0 0,11.55 z"
         style="font-style:normal;font-variant:normal;font-weight:normal;font-stretch:normal;font-size:137.5px;font-family:'IBM Plex Sans';-inkscape-font-specification:'IBM Plex Sans';fill:#f5f7fa;fill-opacity:1"
         id="path4968" />
      <path
         d="m 887.66166,804.01373 25.025,-70.95 -10.5875,0 -12.65,35.2 -7.7,24.2 -0.6875,0 -7.7,-24.2 -12.375,-35.2 -11,0 24.8875,70.95 12.7875,0 z"
         style="font-style:normal;font-variant:normal;font-weight:normal;font-stretch:normal;font-size:137.5px;font-family:'IBM Plex Sans';-inkscape-font-specification:'IBM Plex Sans';fill:#f5f7fa;fill-opacity:1"
         id="path4970" />
      <path
         d="m 970.92006,804.01373 13.3375,0 9.9,-34.1 6.05004,-21.5875 0.275,0 6.1875,21.5875 9.9,34.1 13.6125,0 18.8375,-70.95 -10.3125,0 -7.7,30.6625 -7.2875,31.075 -0.275,0 -8.8,-31.075 -9.2125,-30.6625 -9.76254,0 -8.9375,30.6625 -8.6625,31.075 -0.275,0 -7.5625,-31.075 -7.5625,-30.6625 -10.725,0 18.975,70.95 z"
         style="font-style:normal;font-variant:normal;font-weight:normal;font-stretch:normal;font-size:137.5px;font-family:'IBM Plex Sans';-inkscape-font-specification:'IBM Plex Sans';fill:#f5f7fa;fill-opacity:1"
         id="path4972" />
      <path
         d="m 1100.4322,804.01373 20.35,-28.4625 0.4125,0 18.8375,28.4625 12.5125,0 -25.575,-36.575 25.025,-34.375 -12.2375,0 -18.7,26.4 -0.4125,0 -18.0125,-26.4 -12.925,0 25.1625,35.2 -26.2625,35.75 11.825,0 z"
         style="font-style:normal;font-variant:normal;font-weight:normal;font-stretch:normal;font-size:137.5px;font-family:'IBM Plex Sans';-inkscape-font-specification:'IBM Plex Sans';fill:#f5f7fa;fill-opacity:1"
         id="path4974" />
      <path
         d="m 1226.264,781.32623 -3.85,11.55 -0.6875,0 -3.3,-11.55 -17.05,-48.2625 -11,0 26.5375,73.7 -5.3625,15.125 -11.1375,0 0,9.625 5.6375,0 c 10.45,0 13.3375,-2.475 16.5,-11 l 31.7625,-87.45 -10.8625,0 -17.1875,48.2625 z"
         style="font-style:normal;font-variant:normal;font-weight:normal;font-stretch:normal;font-size:137.5px;font-family:'IBM Plex Sans';-inkscape-font-specification:'IBM Plex Sans';fill:#f5f7fa;fill-opacity:1"
         id="path4976" />
      <path
         d="m 1348.2781,804.01373 0,-9.625 -42.2125,0 41.1125,-53.075 0,-8.25 -52.3875,0 0,9.625 39.05,0 -40.2875,52.1125 0,9.2125 54.725,0 z"
         style="font-style:normal;font-variant:normal;font-weight:normal;font-stretch:normal;font-size:137.5px;font-family:'IBM Plex Sans';-inkscape-font-specification:'IBM Plex Sans';fill:#f5f7fa;fill-opacity:1"
         id="path4978" />
    </g>
    <g
       style="font-style:normal;font-weight:normal;font-size:180px;line-height:125%;font-family:sans-serif;text-align:center;letter-spacing:0px;word-spacing:0px;text-anchor:middle;fill:#f5f7fa;fill-opacity:1;stroke:none;stroke-width:1px;stroke-linecap:butt;stroke-linejoin:miter;stroke-opacity:1"
       id="text4185">
      <path
         d="m 163.08136,997.5937 c 25.05,0 36,-19.95 36,-54.15 0,-34.2 -10.95,-54.15 -36,-54.15 -25.05,0 -36,19.95 -36,54.15 0,34.2 10.95,54.15 36,54.15 z m 0,-10.95 c -16.35,0 -22.8,-14.4 -22.8,-34.65 l 0,-17.1 c 0,-20.25 6.45,-34.65 22.8,-34.65 16.35,0 22.8,14.4 22.8,34.65 l 0,17.1 c 0,20.25 -6.45,34.65 -22.8,34.65 z"
         style="font-style:normal;font-variant:normal;font-weight:normal;font-stretch:normal;font-size:150px;font-family:'IBM Plex Sans';-inkscape-font-specification:'IBM Plex Sans';fill:#f5f7fa;fill-opacity:1"
         id="path4981" />
      <path
         d="m 325.52198,995.7937 0,-11.1 -27,0 0,-93.6 -13.8,0 -33.3,19.35 4.95,9.6 29.55,-17.55 0,82.2 -29.25,0 0,11.1 68.85,0 z"
         style="font-style:normal;font-variant:normal;font-weight:normal;font-stretch:normal;font-size:150px;font-family:'IBM Plex Sans';-inkscape-font-specification:'IBM Plex Sans';fill:#f5f7fa;fill-opacity:1"
         id="path4983" />
      <path
         d="m 448.81261,984.6937 -55.05,0 28.2,-25.35 c 13.35,-12 22.95,-23.4 22.95,-39.6 0,-17.85 -11.7,-30.45 -32.1,-30.45 -20.25,0 -29.55,12.3 -33.6,24.6 l 11.25,4.35 c 2.85,-9.9 8.85,-17.7 21.75,-17.7 12.9,0 19.35,7.95 19.35,19.5 l 0,1.8 c 0,10.05 -7.5,20.55 -17.25,29.55 l -34.2,31.5 0,12.9 68.7,0 0,-11.1 z"
         style="font-style:normal;font-variant:normal;font-weight:normal;font-stretch:normal;font-size:150px;font-family:'IBM Plex Sans';-inkscape-font-specification:'IBM Plex Sans';fill:#f5f7fa;fill-opacity:1"
         id="path4985" />
      <path
         d="m 522.00323,935.4937 0,10.95 12.3,0 c 14.7,0 22.5,7.05 22.5,19.35 l 0,1.2 c 0,12.3 -7.8,19.35 -22.5,19.35 -12.75,0 -18.9,-5.55 -24.3,-13.8 l -9.45,7.2 c 6.45,9 15.75,17.85 33.9,17.85 21.3,0 35.55,-12.45 35.55,-30.45 0,-15.75 -10.8,-24.15 -22.05,-26.4 l 0,-0.6 c 11.1,-2.85 20.1,-10.95 20.1,-24.45 0,-16.95 -14.1,-26.4 -31.8,-26.4 -16.8,0 -25.95,8.7 -31.2,17.1 l 9.3,7.2 c 4.35,-7.95 10.8,-13.05 21.6,-13.05 11.1,0 18.75,5.55 18.75,16.5 l 0,1.05 c 0,10.05 -7.2,17.4 -21.3,17.4 l -11.4,0 z"
         style="font-style:normal;font-variant:normal;font-weight:normal;font-stretch:normal;font-size:150px;font-family:'IBM Plex Sans';-inkscape-font-specification:'IBM Plex Sans';fill:#f5f7fa;fill-opacity:1"
         id="path4987" />
      <path
         d="m 687.89386,995.7937 0,-20.55 15.15,0 0,-10.5 -15.15,0 0,-73.65 -18.75,0 -43.8,73.05 0,11.1 50.55,0 0,20.55 12,0 z m -12.75,-94.95 0.75,0 0,63.9 -38.7,0 37.95,-63.9 z"
         style="font-style:normal;font-variant:normal;font-weight:normal;font-stretch:normal;font-size:150px;font-family:'IBM Plex Sans';-inkscape-font-specification:'IBM Plex Sans';fill:#f5f7fa;fill-opacity:1"
         id="path4989" />
      <path
         d="m 819.73448,891.0937 -56.1,0 -3.75,57.6 10.65,1.5 c 4.35,-4.8 9.15,-8.85 18.75,-8.85 14.25,0 21.9,7.95 21.9,21.75 l 0,1.5 c 0,13.8 -7.65,21.75 -21.9,21.75 -12.6,0 -17.85,-5.55 -23.25,-13.8 l -9.45,7.2 c 6.3,9 15.3,17.85 32.7,17.85 22.05,0 35.25,-14.25 35.25,-34.65 0,-20.25 -13.2,-32.4 -31.2,-32.4 -10.95,0 -16.5,4.5 -21.45,11.55 l -1.05,0 3,-39.9 45.9,0 0,-11.1 z"
         style="font-style:normal;font-variant:normal;font-weight:normal;font-stretch:normal;font-size:150px;font-family:'IBM Plex Sans';-inkscape-font-specification:'IBM Plex Sans';fill:#f5f7fa;fill-opacity:1"
         id="path4991" />
      <path
         d="m 915.57511,997.5937 c 21,0 34.8,-14.1 34.8,-34.65 0,-19.8 -12.9,-32.25 -30.9,-32.25 -12.75,0 -20.25,6.45 -25.2,15 l -0.75,-0.3 c 5.7,-24.3 18.15,-37.95 40.5,-54.3 l -16.2,0 c -16.8,10.95 -37.35,35.25 -37.35,66.3 0,24.9 13.35,40.2 35.1,40.2 z m -0.15,-10.95 c -13.8,0 -21.9,-7.95 -21.9,-22.05 l 0,-1.2 c 0,-14.1 8.1,-22.05 21.9,-22.05 13.8,0 21.9,7.95 21.9,22.05 l 0,1.2 c 0,14.1 -8.1,22.05 -21.9,22.05 z"
         style="font-style:normal;font-variant:normal;font-weight:normal;font-stretch:normal;font-size:150px;font-family:'IBM Plex Sans';-inkscape-font-specification:'IBM Plex Sans';fill:#f5f7fa;fill-opacity:1"
         id="path4993" />
      <path
         d="m 1035.5657,995.7937 39.3,-93.6 0,-11.1 -68.7,0 0,30.3 11.25,0 0,-19.5 44.7,0 -40.05,93.9 13.5,0 z"
         style="font-style:normal;font-variant:normal;font-weight:normal;font-stretch:normal;font-size:150px;font-family:'IBM Plex Sans';-inkscape-font-specification:'IBM Plex Sans';fill:#f5f7fa;fill-opacity:1"
         id="path4995" />
      <path
         d="m 1166.2064,997.5937 c 23.85,0 36.3,-13.05 36.3,-30.3 0,-14.25 -8.55,-22.5 -21.15,-25.95 l 0,-1.2 c 10.95,-3.75 18,-12.6 18,-24.6 0,-15.9 -12.3,-26.25 -33.15,-26.25 -20.85,0 -33.15,10.35 -33.15,26.25 0,12 7.05,20.85 18,24.6 l 0,1.2 c -12.6,3.45 -21.15,11.7 -21.15,25.95 0,17.25 12.45,30.3 36.3,30.3 z m 0,-10.95 c -14.55,0 -22.95,-6.9 -22.95,-18.75 l 0,-3.15 c 0,-11.85 8.4,-18.75 22.95,-18.75 14.55,0 22.95,6.9 22.95,18.75 l 0,3.15 c 0,11.85 -8.4,18.75 -22.95,18.75 z m 0,-51.15 c -13.05,0 -20.1,-5.85 -20.1,-16.5 l 0,-2.25 c 0,-10.65 7.05,-16.5 20.1,-16.5 13.05,0 20.1,5.85 20.1,16.5 l 0,2.25 c 0,10.65 -7.05,16.5 -20.1,16.5 z"
         style="font-style:normal;font-variant:normal;font-weight:normal;font-stretch:normal;font-size:150px;font-family:'IBM Plex Sans';-inkscape-font-specification:'IBM Plex Sans';fill:#f5f7fa;fill-opacity:1"
         id="path4997" />
      <path
         d="m 1326.547,929.4937 c 0,-24.9 -13.35,-40.2 -35.1,-40.2 -21,0 -34.8,14.1 -34.8,34.65 0,19.8 12.9,32.25 30.9,32.25 12.75,0 20.25,-6.45 25.2,-15 l 0.75,0.3 c -5.7,24.3 -18.15,37.95 -40.5,54.3 l 16.2,0 c 16.8,-10.95 37.35,-35.25 37.35,-66.3 z m -34.95,16.05 c -13.8,0 -21.9,-7.95 -21.9,-22.05 l 0,-1.2 c 0,-14.1 8.1,-22.05 21.9,-22.05 13.8,0 21.9,7.95 21.9,22.05 l 0,1.2 c 0,14.1 -8.1,22.05 -21.9,22.05 z"
         style="font-style:normal;font-variant:normal;font-weight:normal;font-stretch:normal;font-size:150px;font-family:'IBM Plex Sans';-inkscape-font-specification:'IBM Plex Sans';fill:#f5f7fa;fill-opacity:1"
         id="path4999" />
    </g>
    <g
       style="font-style:normal;font-weight:normal;font-size:180px;line-height:125%;font-family:sans-serif;text-align:center;letter-spacing:0px;word-spacing:0px;text-anchor:middle;fill:#000000;fill-opacity:1;stroke:none;stroke-width:1px;stroke-linecap:butt;stroke-linejoin:miter;stroke-opacity:1"
       id="text4445" />
  </g>
</svg>
